<mxfile host="app.diagrams.net" modified="2021-04-09T09:13:15.275Z" agent="5.0 (Windows)" etag="r4qZknBXfmpM7i7z2cgq" version="14.5.8" type="github" pages="5">
  <diagram id="YvPclWVgMUa5uSCOIKsS" name="ERD">
    <mxGraphModel dx="1422" dy="791" grid="1" gridSize="10" guides="1" tooltips="1" connect="1" arrows="1" fold="1" page="1" pageScale="1" pageWidth="827" pageHeight="1169" math="0" shadow="0">
      <root>
        <mxCell id="0" />
        <mxCell id="1" parent="0" />
        <mxCell id="dvc0dMmTiPGVa6XvzuYZ-1" value="MediaItem" style="swimlane;childLayout=stackLayout;horizontal=1;startSize=30;horizontalStack=0;rounded=1;fontSize=14;fontStyle=0;strokeWidth=2;resizeParent=0;resizeLast=1;shadow=0;dashed=0;align=center;" parent="1" vertex="1">
          <mxGeometry x="40" y="120" width="160" height="240" as="geometry" />
        </mxCell>
        <mxCell id="dvc0dMmTiPGVa6XvzuYZ-2" value="id : int&#xa;imgLink : String&#xa;overview : String&#xa;releaseDate : String&#xa;genreIds : List&lt;int&gt;&#xa;originalTitle : String&#xa;originalLanguage : String&#xa;title : String&#xa;backdropPath : String&#xa;popularity : Double&#xa;voteCount : int&#xa;video : Boolean&#xa;voteAverage : Double&#xa;watchTime : int" style="align=left;strokeColor=none;fillColor=none;spacingLeft=4;fontSize=12;verticalAlign=top;resizable=0;rotatable=0;part=1;fontStyle=0" parent="dvc0dMmTiPGVa6XvzuYZ-1" vertex="1">
          <mxGeometry y="30" width="160" height="210" as="geometry" />
        </mxCell>
        <mxCell id="dvc0dMmTiPGVa6XvzuYZ-3" value="List" style="swimlane;childLayout=stackLayout;horizontal=1;startSize=30;horizontalStack=0;rounded=1;fontSize=14;fontStyle=0;strokeWidth=2;resizeParent=0;resizeLast=1;shadow=0;dashed=0;align=center;" parent="1" vertex="1">
          <mxGeometry x="330" y="150" width="160" height="120" as="geometry" />
        </mxCell>
        <mxCell id="dvc0dMmTiPGVa6XvzuYZ-4" value="id : int&#xa;description : String&#xa;favoriteCount : int&#xa;itemCount : int&#xa;name : String" style="align=left;strokeColor=none;fillColor=none;spacingLeft=4;fontSize=12;verticalAlign=top;resizable=0;rotatable=0;part=1;" parent="dvc0dMmTiPGVa6XvzuYZ-3" vertex="1">
          <mxGeometry y="30" width="160" height="90" as="geometry" />
        </mxCell>
        <mxCell id="8VdIYTHdS9WMLoq2Rs6U-1" value="" style="edgeStyle=entityRelationEdgeStyle;fontSize=12;html=1;endArrow=ERzeroToMany;endFill=1;entryX=1;entryY=0.25;entryDx=0;entryDy=0;exitX=0;exitY=0.25;exitDx=0;exitDy=0;startArrow=ERzeroToMany;startFill=1;" parent="1" source="dvc0dMmTiPGVa6XvzuYZ-4" target="dvc0dMmTiPGVa6XvzuYZ-2" edge="1">
          <mxGeometry width="100" height="100" relative="1" as="geometry">
            <mxPoint x="240" y="530" as="sourcePoint" />
            <mxPoint x="340" y="430" as="targetPoint" />
          </mxGeometry>
        </mxCell>
        <mxCell id="8VdIYTHdS9WMLoq2Rs6U-2" value="Review" style="swimlane;childLayout=stackLayout;horizontal=1;startSize=30;horizontalStack=0;rounded=1;fontSize=14;fontStyle=0;strokeWidth=2;resizeParent=0;resizeLast=1;shadow=0;dashed=0;align=center;" parent="1" vertex="1">
          <mxGeometry x="40" y="450" width="160" height="120" as="geometry" />
        </mxCell>
        <mxCell id="8VdIYTHdS9WMLoq2Rs6U-3" value="id : int&#xa;author : String&#xa;rating : int&#xa;content : String" style="align=left;strokeColor=none;fillColor=none;spacingLeft=4;fontSize=12;verticalAlign=top;resizable=0;rotatable=0;part=1;fontStyle=0" parent="8VdIYTHdS9WMLoq2Rs6U-2" vertex="1">
          <mxGeometry y="30" width="160" height="90" as="geometry" />
        </mxCell>
        <mxCell id="8VdIYTHdS9WMLoq2Rs6U-5" value="" style="fontSize=12;html=1;endArrow=ERone;endFill=0;exitX=0.5;exitY=0;exitDx=0;exitDy=0;entryX=0.5;entryY=1;entryDx=0;entryDy=0;rounded=1;startArrow=ERzeroToMany;startFill=1;" parent="1" source="8VdIYTHdS9WMLoq2Rs6U-2" target="dvc0dMmTiPGVa6XvzuYZ-2" edge="1">
          <mxGeometry width="100" height="100" relative="1" as="geometry">
            <mxPoint x="310" y="530" as="sourcePoint" />
            <mxPoint x="410" y="430" as="targetPoint" />
          </mxGeometry>
        </mxCell>
      </root>
    </mxGraphModel>
  </diagram>
  <diagram id="x0ZY-Escrd4bbqPKITbU" name="Relationeel ontwerp">
    <mxGraphModel dx="1422" dy="791" grid="1" gridSize="10" guides="1" tooltips="1" connect="1" arrows="1" fold="1" page="1" pageScale="1" pageWidth="827" pageHeight="1169" math="0" shadow="0">
      <root>
        <mxCell id="8-aF0zE-Ho_VPP0TDPmS-0" />
        <mxCell id="8-aF0zE-Ho_VPP0TDPmS-1" parent="8-aF0zE-Ho_VPP0TDPmS-0" />
        <mxCell id="Jzk4uhNYP7gJ-diYkPQe-8" value="MediaItem" style="shape=table;startSize=30;container=1;collapsible=1;childLayout=tableLayout;fixedRows=1;rowLines=0;fontStyle=1;align=center;resizeLast=1;" parent="8-aF0zE-Ho_VPP0TDPmS-1" vertex="1">
          <mxGeometry x="110" y="70" width="190" height="430" as="geometry" />
        </mxCell>
        <mxCell id="Jzk4uhNYP7gJ-diYkPQe-9" value="" style="shape=partialRectangle;collapsible=0;dropTarget=0;pointerEvents=0;fillColor=none;top=0;left=0;bottom=1;right=0;points=[[0,0.5],[1,0.5]];portConstraint=eastwest;" parent="Jzk4uhNYP7gJ-diYkPQe-8" vertex="1">
          <mxGeometry y="30" width="190" height="30" as="geometry" />
        </mxCell>
        <mxCell id="Jzk4uhNYP7gJ-diYkPQe-10" value="PK,FK" style="shape=partialRectangle;connectable=0;fillColor=none;top=0;left=0;bottom=0;right=0;fontStyle=1;overflow=hidden;" parent="Jzk4uhNYP7gJ-diYkPQe-9" vertex="1">
          <mxGeometry width="40" height="30" as="geometry" />
        </mxCell>
        <mxCell id="Jzk4uhNYP7gJ-diYkPQe-11" value="id : int" style="shape=partialRectangle;connectable=0;fillColor=none;top=0;left=0;bottom=0;right=0;align=left;spacingLeft=6;fontStyle=5;overflow=hidden;" parent="Jzk4uhNYP7gJ-diYkPQe-9" vertex="1">
          <mxGeometry x="40" width="150" height="30" as="geometry" />
        </mxCell>
        <mxCell id="Jzk4uhNYP7gJ-diYkPQe-12" value="" style="shape=partialRectangle;collapsible=0;dropTarget=0;pointerEvents=0;fillColor=none;top=0;left=0;bottom=0;right=0;points=[[0,0.5],[1,0.5]];portConstraint=eastwest;" parent="Jzk4uhNYP7gJ-diYkPQe-8" vertex="1">
          <mxGeometry y="60" width="190" height="30" as="geometry" />
        </mxCell>
        <mxCell id="Jzk4uhNYP7gJ-diYkPQe-13" value="" style="shape=partialRectangle;connectable=0;fillColor=none;top=0;left=0;bottom=0;right=0;editable=1;overflow=hidden;" parent="Jzk4uhNYP7gJ-diYkPQe-12" vertex="1">
          <mxGeometry width="40" height="30" as="geometry" />
        </mxCell>
        <mxCell id="Jzk4uhNYP7gJ-diYkPQe-14" value="imgLink : String" style="shape=partialRectangle;connectable=0;fillColor=none;top=0;left=0;bottom=0;right=0;align=left;spacingLeft=6;overflow=hidden;" parent="Jzk4uhNYP7gJ-diYkPQe-12" vertex="1">
          <mxGeometry x="40" width="150" height="30" as="geometry" />
        </mxCell>
        <mxCell id="Jzk4uhNYP7gJ-diYkPQe-15" value="" style="shape=partialRectangle;collapsible=0;dropTarget=0;pointerEvents=0;fillColor=none;top=0;left=0;bottom=0;right=0;points=[[0,0.5],[1,0.5]];portConstraint=eastwest;" parent="Jzk4uhNYP7gJ-diYkPQe-8" vertex="1">
          <mxGeometry y="90" width="190" height="30" as="geometry" />
        </mxCell>
        <mxCell id="Jzk4uhNYP7gJ-diYkPQe-16" value="" style="shape=partialRectangle;connectable=0;fillColor=none;top=0;left=0;bottom=0;right=0;editable=1;overflow=hidden;" parent="Jzk4uhNYP7gJ-diYkPQe-15" vertex="1">
          <mxGeometry width="40" height="30" as="geometry" />
        </mxCell>
        <mxCell id="Jzk4uhNYP7gJ-diYkPQe-17" value="overview : String" style="shape=partialRectangle;connectable=0;fillColor=none;top=0;left=0;bottom=0;right=0;align=left;spacingLeft=6;overflow=hidden;" parent="Jzk4uhNYP7gJ-diYkPQe-15" vertex="1">
          <mxGeometry x="40" width="150" height="30" as="geometry" />
        </mxCell>
        <mxCell id="Jzk4uhNYP7gJ-diYkPQe-18" value="" style="shape=partialRectangle;collapsible=0;dropTarget=0;pointerEvents=0;fillColor=none;top=0;left=0;bottom=0;right=0;points=[[0,0.5],[1,0.5]];portConstraint=eastwest;" parent="Jzk4uhNYP7gJ-diYkPQe-8" vertex="1">
          <mxGeometry y="120" width="190" height="30" as="geometry" />
        </mxCell>
        <mxCell id="Jzk4uhNYP7gJ-diYkPQe-19" value="" style="shape=partialRectangle;connectable=0;fillColor=none;top=0;left=0;bottom=0;right=0;editable=1;overflow=hidden;" parent="Jzk4uhNYP7gJ-diYkPQe-18" vertex="1">
          <mxGeometry width="40" height="30" as="geometry" />
        </mxCell>
        <mxCell id="Jzk4uhNYP7gJ-diYkPQe-20" value="releaseDate : String" style="shape=partialRectangle;connectable=0;fillColor=none;top=0;left=0;bottom=0;right=0;align=left;spacingLeft=6;overflow=hidden;" parent="Jzk4uhNYP7gJ-diYkPQe-18" vertex="1">
          <mxGeometry x="40" width="150" height="30" as="geometry" />
        </mxCell>
        <mxCell id="Jzk4uhNYP7gJ-diYkPQe-22" value="" style="shape=partialRectangle;collapsible=0;dropTarget=0;pointerEvents=0;fillColor=none;top=0;left=0;bottom=0;right=0;points=[[0,0.5],[1,0.5]];portConstraint=eastwest;" parent="Jzk4uhNYP7gJ-diYkPQe-8" vertex="1">
          <mxGeometry y="150" width="190" height="30" as="geometry" />
        </mxCell>
        <mxCell id="Jzk4uhNYP7gJ-diYkPQe-23" value="" style="shape=partialRectangle;connectable=0;fillColor=none;top=0;left=0;bottom=0;right=0;editable=1;overflow=hidden;" parent="Jzk4uhNYP7gJ-diYkPQe-22" vertex="1">
          <mxGeometry width="40" height="30" as="geometry" />
        </mxCell>
        <mxCell id="Jzk4uhNYP7gJ-diYkPQe-24" value="genreIds : List&lt;int&gt;" style="shape=partialRectangle;connectable=0;fillColor=none;top=0;left=0;bottom=0;right=0;align=left;spacingLeft=6;overflow=hidden;" parent="Jzk4uhNYP7gJ-diYkPQe-22" vertex="1">
          <mxGeometry x="40" width="150" height="30" as="geometry" />
        </mxCell>
        <mxCell id="Jzk4uhNYP7gJ-diYkPQe-25" value="" style="shape=partialRectangle;collapsible=0;dropTarget=0;pointerEvents=0;fillColor=none;top=0;left=0;bottom=0;right=0;points=[[0,0.5],[1,0.5]];portConstraint=eastwest;" parent="Jzk4uhNYP7gJ-diYkPQe-8" vertex="1">
          <mxGeometry y="180" width="190" height="30" as="geometry" />
        </mxCell>
        <mxCell id="Jzk4uhNYP7gJ-diYkPQe-26" value="" style="shape=partialRectangle;connectable=0;fillColor=none;top=0;left=0;bottom=0;right=0;editable=1;overflow=hidden;" parent="Jzk4uhNYP7gJ-diYkPQe-25" vertex="1">
          <mxGeometry width="40" height="30" as="geometry" />
        </mxCell>
        <mxCell id="Jzk4uhNYP7gJ-diYkPQe-27" value="originalTitle : String" style="shape=partialRectangle;connectable=0;fillColor=none;top=0;left=0;bottom=0;right=0;align=left;spacingLeft=6;overflow=hidden;" parent="Jzk4uhNYP7gJ-diYkPQe-25" vertex="1">
          <mxGeometry x="40" width="150" height="30" as="geometry" />
        </mxCell>
        <mxCell id="Jzk4uhNYP7gJ-diYkPQe-28" value="" style="shape=partialRectangle;collapsible=0;dropTarget=0;pointerEvents=0;fillColor=none;top=0;left=0;bottom=0;right=0;points=[[0,0.5],[1,0.5]];portConstraint=eastwest;" parent="Jzk4uhNYP7gJ-diYkPQe-8" vertex="1">
          <mxGeometry y="210" width="190" height="30" as="geometry" />
        </mxCell>
        <mxCell id="Jzk4uhNYP7gJ-diYkPQe-29" value="" style="shape=partialRectangle;connectable=0;fillColor=none;top=0;left=0;bottom=0;right=0;editable=1;overflow=hidden;" parent="Jzk4uhNYP7gJ-diYkPQe-28" vertex="1">
          <mxGeometry width="40" height="30" as="geometry" />
        </mxCell>
        <mxCell id="Jzk4uhNYP7gJ-diYkPQe-30" value="originalLanguage : String" style="shape=partialRectangle;connectable=0;fillColor=none;top=0;left=0;bottom=0;right=0;align=left;spacingLeft=6;overflow=hidden;" parent="Jzk4uhNYP7gJ-diYkPQe-28" vertex="1">
          <mxGeometry x="40" width="150" height="30" as="geometry" />
        </mxCell>
        <mxCell id="Jzk4uhNYP7gJ-diYkPQe-31" value="" style="shape=partialRectangle;collapsible=0;dropTarget=0;pointerEvents=0;fillColor=none;top=0;left=0;bottom=0;right=0;points=[[0,0.5],[1,0.5]];portConstraint=eastwest;" parent="Jzk4uhNYP7gJ-diYkPQe-8" vertex="1">
          <mxGeometry y="240" width="190" height="30" as="geometry" />
        </mxCell>
        <mxCell id="Jzk4uhNYP7gJ-diYkPQe-32" value="" style="shape=partialRectangle;connectable=0;fillColor=none;top=0;left=0;bottom=0;right=0;editable=1;overflow=hidden;" parent="Jzk4uhNYP7gJ-diYkPQe-31" vertex="1">
          <mxGeometry width="40" height="30" as="geometry" />
        </mxCell>
        <mxCell id="Jzk4uhNYP7gJ-diYkPQe-33" value="title : String" style="shape=partialRectangle;connectable=0;fillColor=none;top=0;left=0;bottom=0;right=0;align=left;spacingLeft=6;overflow=hidden;" parent="Jzk4uhNYP7gJ-diYkPQe-31" vertex="1">
          <mxGeometry x="40" width="150" height="30" as="geometry" />
        </mxCell>
        <mxCell id="Jzk4uhNYP7gJ-diYkPQe-34" value="" style="shape=partialRectangle;collapsible=0;dropTarget=0;pointerEvents=0;fillColor=none;top=0;left=0;bottom=0;right=0;points=[[0,0.5],[1,0.5]];portConstraint=eastwest;" parent="Jzk4uhNYP7gJ-diYkPQe-8" vertex="1">
          <mxGeometry y="270" width="190" height="30" as="geometry" />
        </mxCell>
        <mxCell id="Jzk4uhNYP7gJ-diYkPQe-35" value="" style="shape=partialRectangle;connectable=0;fillColor=none;top=0;left=0;bottom=0;right=0;editable=1;overflow=hidden;" parent="Jzk4uhNYP7gJ-diYkPQe-34" vertex="1">
          <mxGeometry width="40" height="30" as="geometry" />
        </mxCell>
        <mxCell id="Jzk4uhNYP7gJ-diYkPQe-36" value="popularity : Double" style="shape=partialRectangle;connectable=0;fillColor=none;top=0;left=0;bottom=0;right=0;align=left;spacingLeft=6;overflow=hidden;" parent="Jzk4uhNYP7gJ-diYkPQe-34" vertex="1">
          <mxGeometry x="40" width="150" height="30" as="geometry" />
        </mxCell>
        <mxCell id="Jzk4uhNYP7gJ-diYkPQe-65" value="" style="shape=partialRectangle;collapsible=0;dropTarget=0;pointerEvents=0;fillColor=none;top=0;left=0;bottom=0;right=0;points=[[0,0.5],[1,0.5]];portConstraint=eastwest;" parent="Jzk4uhNYP7gJ-diYkPQe-8" vertex="1">
          <mxGeometry y="300" width="190" height="30" as="geometry" />
        </mxCell>
        <mxCell id="Jzk4uhNYP7gJ-diYkPQe-66" value="" style="shape=partialRectangle;connectable=0;fillColor=none;top=0;left=0;bottom=0;right=0;editable=1;overflow=hidden;" parent="Jzk4uhNYP7gJ-diYkPQe-65" vertex="1">
          <mxGeometry width="40" height="30" as="geometry" />
        </mxCell>
        <mxCell id="Jzk4uhNYP7gJ-diYkPQe-67" value="voteCount : int" style="shape=partialRectangle;connectable=0;fillColor=none;top=0;left=0;bottom=0;right=0;align=left;spacingLeft=6;overflow=hidden;" parent="Jzk4uhNYP7gJ-diYkPQe-65" vertex="1">
          <mxGeometry x="40" width="150" height="30" as="geometry" />
        </mxCell>
        <mxCell id="Jzk4uhNYP7gJ-diYkPQe-68" value="" style="shape=partialRectangle;collapsible=0;dropTarget=0;pointerEvents=0;fillColor=none;top=0;left=0;bottom=0;right=0;points=[[0,0.5],[1,0.5]];portConstraint=eastwest;" parent="Jzk4uhNYP7gJ-diYkPQe-8" vertex="1">
          <mxGeometry y="330" width="190" height="30" as="geometry" />
        </mxCell>
        <mxCell id="Jzk4uhNYP7gJ-diYkPQe-69" value="" style="shape=partialRectangle;connectable=0;fillColor=none;top=0;left=0;bottom=0;right=0;editable=1;overflow=hidden;" parent="Jzk4uhNYP7gJ-diYkPQe-68" vertex="1">
          <mxGeometry width="40" height="30" as="geometry" />
        </mxCell>
        <mxCell id="Jzk4uhNYP7gJ-diYkPQe-70" value="video : Boolean" style="shape=partialRectangle;connectable=0;fillColor=none;top=0;left=0;bottom=0;right=0;align=left;spacingLeft=6;overflow=hidden;" parent="Jzk4uhNYP7gJ-diYkPQe-68" vertex="1">
          <mxGeometry x="40" width="150" height="30" as="geometry" />
        </mxCell>
        <mxCell id="Jzk4uhNYP7gJ-diYkPQe-71" value="" style="shape=partialRectangle;collapsible=0;dropTarget=0;pointerEvents=0;fillColor=none;top=0;left=0;bottom=0;right=0;points=[[0,0.5],[1,0.5]];portConstraint=eastwest;" parent="Jzk4uhNYP7gJ-diYkPQe-8" vertex="1">
          <mxGeometry y="360" width="190" height="30" as="geometry" />
        </mxCell>
        <mxCell id="Jzk4uhNYP7gJ-diYkPQe-72" value="" style="shape=partialRectangle;connectable=0;fillColor=none;top=0;left=0;bottom=0;right=0;editable=1;overflow=hidden;" parent="Jzk4uhNYP7gJ-diYkPQe-71" vertex="1">
          <mxGeometry width="40" height="30" as="geometry" />
        </mxCell>
        <mxCell id="Jzk4uhNYP7gJ-diYkPQe-73" value="voteAverage : Double" style="shape=partialRectangle;connectable=0;fillColor=none;top=0;left=0;bottom=0;right=0;align=left;spacingLeft=6;overflow=hidden;" parent="Jzk4uhNYP7gJ-diYkPQe-71" vertex="1">
          <mxGeometry x="40" width="150" height="30" as="geometry" />
        </mxCell>
        <mxCell id="1UpUo03lPXwnFDqgRgwe-37" value="" style="shape=partialRectangle;collapsible=0;dropTarget=0;pointerEvents=0;fillColor=none;top=0;left=0;bottom=0;right=0;points=[[0,0.5],[1,0.5]];portConstraint=eastwest;" parent="Jzk4uhNYP7gJ-diYkPQe-8" vertex="1">
          <mxGeometry y="390" width="190" height="30" as="geometry" />
        </mxCell>
        <mxCell id="1UpUo03lPXwnFDqgRgwe-38" value="" style="shape=partialRectangle;connectable=0;fillColor=none;top=0;left=0;bottom=0;right=0;editable=1;overflow=hidden;" parent="1UpUo03lPXwnFDqgRgwe-37" vertex="1">
          <mxGeometry width="40" height="30" as="geometry" />
        </mxCell>
        <mxCell id="1UpUo03lPXwnFDqgRgwe-39" value="watchTime : int" style="shape=partialRectangle;connectable=0;fillColor=none;top=0;left=0;bottom=0;right=0;align=left;spacingLeft=6;overflow=hidden;" parent="1UpUo03lPXwnFDqgRgwe-37" vertex="1">
          <mxGeometry x="40" width="150" height="30" as="geometry" />
        </mxCell>
        <mxCell id="roUslabew1PH2xe0v3vM-13" style="edgeStyle=orthogonalEdgeStyle;rounded=0;orthogonalLoop=1;jettySize=auto;html=1;entryX=1;entryY=0.5;entryDx=0;entryDy=0;startArrow=ERzeroToMany;startFill=1;endArrow=ERzeroToOne;endFill=1;exitX=0;exitY=0.5;exitDx=0;exitDy=0;" parent="8-aF0zE-Ho_VPP0TDPmS-1" source="Jzk4uhNYP7gJ-diYkPQe-84" target="roUslabew1PH2xe0v3vM-28" edge="1">
          <mxGeometry relative="1" as="geometry">
            <mxPoint x="560" y="175" as="targetPoint" />
          </mxGeometry>
        </mxCell>
        <mxCell id="Jzk4uhNYP7gJ-diYkPQe-80" value="List" style="shape=table;startSize=30;container=1;collapsible=1;childLayout=tableLayout;fixedRows=1;rowLines=0;fontStyle=1;align=center;resizeLast=1;" parent="8-aF0zE-Ho_VPP0TDPmS-1" vertex="1">
          <mxGeometry x="600" y="70" width="180" height="190" as="geometry" />
        </mxCell>
        <mxCell id="Jzk4uhNYP7gJ-diYkPQe-81" value="" style="shape=partialRectangle;collapsible=0;dropTarget=0;pointerEvents=0;fillColor=none;top=0;left=0;bottom=1;right=0;points=[[0,0.5],[1,0.5]];portConstraint=eastwest;" parent="Jzk4uhNYP7gJ-diYkPQe-80" vertex="1">
          <mxGeometry y="30" width="180" height="30" as="geometry" />
        </mxCell>
        <mxCell id="Jzk4uhNYP7gJ-diYkPQe-82" value="PK,FK" style="shape=partialRectangle;connectable=0;fillColor=none;top=0;left=0;bottom=0;right=0;fontStyle=1;overflow=hidden;" parent="Jzk4uhNYP7gJ-diYkPQe-81" vertex="1">
          <mxGeometry width="40" height="30" as="geometry" />
        </mxCell>
        <mxCell id="Jzk4uhNYP7gJ-diYkPQe-83" value="id : int" style="shape=partialRectangle;connectable=0;fillColor=none;top=0;left=0;bottom=0;right=0;align=left;spacingLeft=6;fontStyle=5;overflow=hidden;" parent="Jzk4uhNYP7gJ-diYkPQe-81" vertex="1">
          <mxGeometry x="40" width="140" height="30" as="geometry" />
        </mxCell>
        <mxCell id="Jzk4uhNYP7gJ-diYkPQe-84" value="" style="shape=partialRectangle;collapsible=0;dropTarget=0;pointerEvents=0;fillColor=none;top=0;left=0;bottom=0;right=0;points=[[0,0.5],[1,0.5]];portConstraint=eastwest;" parent="Jzk4uhNYP7gJ-diYkPQe-80" vertex="1">
          <mxGeometry y="60" width="180" height="30" as="geometry" />
        </mxCell>
        <mxCell id="Jzk4uhNYP7gJ-diYkPQe-85" value="" style="shape=partialRectangle;connectable=0;fillColor=none;top=0;left=0;bottom=0;right=0;editable=1;overflow=hidden;" parent="Jzk4uhNYP7gJ-diYkPQe-84" vertex="1">
          <mxGeometry width="40" height="30" as="geometry" />
        </mxCell>
        <mxCell id="Jzk4uhNYP7gJ-diYkPQe-86" value="description : String" style="shape=partialRectangle;connectable=0;fillColor=none;top=0;left=0;bottom=0;right=0;align=left;spacingLeft=6;overflow=hidden;" parent="Jzk4uhNYP7gJ-diYkPQe-84" vertex="1">
          <mxGeometry x="40" width="140" height="30" as="geometry" />
        </mxCell>
        <mxCell id="Jzk4uhNYP7gJ-diYkPQe-87" value="" style="shape=partialRectangle;collapsible=0;dropTarget=0;pointerEvents=0;fillColor=none;top=0;left=0;bottom=0;right=0;points=[[0,0.5],[1,0.5]];portConstraint=eastwest;" parent="Jzk4uhNYP7gJ-diYkPQe-80" vertex="1">
          <mxGeometry y="90" width="180" height="30" as="geometry" />
        </mxCell>
        <mxCell id="Jzk4uhNYP7gJ-diYkPQe-88" value="" style="shape=partialRectangle;connectable=0;fillColor=none;top=0;left=0;bottom=0;right=0;editable=1;overflow=hidden;" parent="Jzk4uhNYP7gJ-diYkPQe-87" vertex="1">
          <mxGeometry width="40" height="30" as="geometry" />
        </mxCell>
        <mxCell id="Jzk4uhNYP7gJ-diYkPQe-89" value="favoriteCount : int" style="shape=partialRectangle;connectable=0;fillColor=none;top=0;left=0;bottom=0;right=0;align=left;spacingLeft=6;overflow=hidden;" parent="Jzk4uhNYP7gJ-diYkPQe-87" vertex="1">
          <mxGeometry x="40" width="140" height="30" as="geometry" />
        </mxCell>
        <mxCell id="Jzk4uhNYP7gJ-diYkPQe-90" value="" style="shape=partialRectangle;collapsible=0;dropTarget=0;pointerEvents=0;fillColor=none;top=0;left=0;bottom=0;right=0;points=[[0,0.5],[1,0.5]];portConstraint=eastwest;" parent="Jzk4uhNYP7gJ-diYkPQe-80" vertex="1">
          <mxGeometry y="120" width="180" height="30" as="geometry" />
        </mxCell>
        <mxCell id="Jzk4uhNYP7gJ-diYkPQe-91" value="" style="shape=partialRectangle;connectable=0;fillColor=none;top=0;left=0;bottom=0;right=0;editable=1;overflow=hidden;" parent="Jzk4uhNYP7gJ-diYkPQe-90" vertex="1">
          <mxGeometry width="40" height="30" as="geometry" />
        </mxCell>
        <mxCell id="Jzk4uhNYP7gJ-diYkPQe-92" value="itemCount : int" style="shape=partialRectangle;connectable=0;fillColor=none;top=0;left=0;bottom=0;right=0;align=left;spacingLeft=6;overflow=hidden;" parent="Jzk4uhNYP7gJ-diYkPQe-90" vertex="1">
          <mxGeometry x="40" width="140" height="30" as="geometry" />
        </mxCell>
        <mxCell id="1UpUo03lPXwnFDqgRgwe-13" value="" style="shape=partialRectangle;collapsible=0;dropTarget=0;pointerEvents=0;fillColor=none;top=0;left=0;bottom=0;right=0;points=[[0,0.5],[1,0.5]];portConstraint=eastwest;" parent="Jzk4uhNYP7gJ-diYkPQe-80" vertex="1">
          <mxGeometry y="150" width="180" height="30" as="geometry" />
        </mxCell>
        <mxCell id="1UpUo03lPXwnFDqgRgwe-14" value="" style="shape=partialRectangle;connectable=0;fillColor=none;top=0;left=0;bottom=0;right=0;editable=1;overflow=hidden;" parent="1UpUo03lPXwnFDqgRgwe-13" vertex="1">
          <mxGeometry width="40" height="30" as="geometry" />
        </mxCell>
        <mxCell id="1UpUo03lPXwnFDqgRgwe-15" value="name : String" style="shape=partialRectangle;connectable=0;fillColor=none;top=0;left=0;bottom=0;right=0;align=left;spacingLeft=6;overflow=hidden;" parent="1UpUo03lPXwnFDqgRgwe-13" vertex="1">
          <mxGeometry x="40" width="140" height="30" as="geometry" />
        </mxCell>
        <mxCell id="1UpUo03lPXwnFDqgRgwe-32" style="edgeStyle=orthogonalEdgeStyle;rounded=0;orthogonalLoop=1;jettySize=auto;html=1;endArrow=ERone;endFill=0;startArrow=ERzeroToMany;startFill=1;" parent="8-aF0zE-Ho_VPP0TDPmS-1" source="1UpUo03lPXwnFDqgRgwe-16" target="Jzk4uhNYP7gJ-diYkPQe-65" edge="1">
          <mxGeometry relative="1" as="geometry">
            <Array as="points">
              <mxPoint x="350" y="385" />
              <mxPoint x="350" y="385" />
            </Array>
          </mxGeometry>
        </mxCell>
        <mxCell id="1UpUo03lPXwnFDqgRgwe-16" value="Review" style="shape=table;startSize=30;container=1;collapsible=1;childLayout=tableLayout;fixedRows=1;rowLines=0;fontStyle=1;align=center;resizeLast=1;" parent="8-aF0zE-Ho_VPP0TDPmS-1" vertex="1">
          <mxGeometry x="370" y="310" width="180" height="160" as="geometry" />
        </mxCell>
        <mxCell id="1UpUo03lPXwnFDqgRgwe-17" value="" style="shape=partialRectangle;collapsible=0;dropTarget=0;pointerEvents=0;fillColor=none;top=0;left=0;bottom=1;right=0;points=[[0,0.5],[1,0.5]];portConstraint=eastwest;" parent="1UpUo03lPXwnFDqgRgwe-16" vertex="1">
          <mxGeometry y="30" width="180" height="30" as="geometry" />
        </mxCell>
        <mxCell id="1UpUo03lPXwnFDqgRgwe-18" value="PK,FK" style="shape=partialRectangle;connectable=0;fillColor=none;top=0;left=0;bottom=0;right=0;fontStyle=1;overflow=hidden;" parent="1UpUo03lPXwnFDqgRgwe-17" vertex="1">
          <mxGeometry width="40" height="30" as="geometry" />
        </mxCell>
        <mxCell id="1UpUo03lPXwnFDqgRgwe-19" value="id : int" style="shape=partialRectangle;connectable=0;fillColor=none;top=0;left=0;bottom=0;right=0;align=left;spacingLeft=6;fontStyle=5;overflow=hidden;" parent="1UpUo03lPXwnFDqgRgwe-17" vertex="1">
          <mxGeometry x="40" width="140" height="30" as="geometry" />
        </mxCell>
        <mxCell id="1UpUo03lPXwnFDqgRgwe-20" value="" style="shape=partialRectangle;collapsible=0;dropTarget=0;pointerEvents=0;fillColor=none;top=0;left=0;bottom=0;right=0;points=[[0,0.5],[1,0.5]];portConstraint=eastwest;" parent="1UpUo03lPXwnFDqgRgwe-16" vertex="1">
          <mxGeometry y="60" width="180" height="30" as="geometry" />
        </mxCell>
        <mxCell id="1UpUo03lPXwnFDqgRgwe-21" value="" style="shape=partialRectangle;connectable=0;fillColor=none;top=0;left=0;bottom=0;right=0;editable=1;overflow=hidden;" parent="1UpUo03lPXwnFDqgRgwe-20" vertex="1">
          <mxGeometry width="40" height="30" as="geometry" />
        </mxCell>
        <mxCell id="1UpUo03lPXwnFDqgRgwe-22" value="author : String" style="shape=partialRectangle;connectable=0;fillColor=none;top=0;left=0;bottom=0;right=0;align=left;spacingLeft=6;overflow=hidden;" parent="1UpUo03lPXwnFDqgRgwe-20" vertex="1">
          <mxGeometry x="40" width="140" height="30" as="geometry" />
        </mxCell>
        <mxCell id="1UpUo03lPXwnFDqgRgwe-23" value="" style="shape=partialRectangle;collapsible=0;dropTarget=0;pointerEvents=0;fillColor=none;top=0;left=0;bottom=0;right=0;points=[[0,0.5],[1,0.5]];portConstraint=eastwest;" parent="1UpUo03lPXwnFDqgRgwe-16" vertex="1">
          <mxGeometry y="90" width="180" height="30" as="geometry" />
        </mxCell>
        <mxCell id="1UpUo03lPXwnFDqgRgwe-24" value="" style="shape=partialRectangle;connectable=0;fillColor=none;top=0;left=0;bottom=0;right=0;editable=1;overflow=hidden;" parent="1UpUo03lPXwnFDqgRgwe-23" vertex="1">
          <mxGeometry width="40" height="30" as="geometry" />
        </mxCell>
        <mxCell id="1UpUo03lPXwnFDqgRgwe-25" value="rating : int" style="shape=partialRectangle;connectable=0;fillColor=none;top=0;left=0;bottom=0;right=0;align=left;spacingLeft=6;overflow=hidden;" parent="1UpUo03lPXwnFDqgRgwe-23" vertex="1">
          <mxGeometry x="40" width="140" height="30" as="geometry" />
        </mxCell>
        <mxCell id="1UpUo03lPXwnFDqgRgwe-26" value="" style="shape=partialRectangle;collapsible=0;dropTarget=0;pointerEvents=0;fillColor=none;top=0;left=0;bottom=0;right=0;points=[[0,0.5],[1,0.5]];portConstraint=eastwest;" parent="1UpUo03lPXwnFDqgRgwe-16" vertex="1">
          <mxGeometry y="120" width="180" height="30" as="geometry" />
        </mxCell>
        <mxCell id="1UpUo03lPXwnFDqgRgwe-27" value="" style="shape=partialRectangle;connectable=0;fillColor=none;top=0;left=0;bottom=0;right=0;editable=1;overflow=hidden;" parent="1UpUo03lPXwnFDqgRgwe-26" vertex="1">
          <mxGeometry width="40" height="30" as="geometry" />
        </mxCell>
        <mxCell id="1UpUo03lPXwnFDqgRgwe-28" value="content : String" style="shape=partialRectangle;connectable=0;fillColor=none;top=0;left=0;bottom=0;right=0;align=left;spacingLeft=6;overflow=hidden;" parent="1UpUo03lPXwnFDqgRgwe-26" vertex="1">
          <mxGeometry x="40" width="140" height="30" as="geometry" />
        </mxCell>
        <mxCell id="roUslabew1PH2xe0v3vM-14" style="edgeStyle=orthogonalEdgeStyle;rounded=0;orthogonalLoop=1;jettySize=auto;html=1;entryX=1;entryY=0.5;entryDx=0;entryDy=0;startArrow=ERzeroToOne;startFill=1;endArrow=ERzeroToMany;endFill=1;exitX=0;exitY=0.5;exitDx=0;exitDy=0;" parent="8-aF0zE-Ho_VPP0TDPmS-1" source="roUslabew1PH2xe0v3vM-28" target="Jzk4uhNYP7gJ-diYkPQe-12" edge="1">
          <mxGeometry relative="1" as="geometry">
            <mxPoint x="370" y="165" as="sourcePoint" />
          </mxGeometry>
        </mxCell>
        <mxCell id="roUslabew1PH2xe0v3vM-24" value="ListMediaItem" style="shape=table;startSize=30;container=1;collapsible=1;childLayout=tableLayout;fixedRows=1;rowLines=0;fontStyle=1;align=center;resizeLast=1;" parent="8-aF0zE-Ho_VPP0TDPmS-1" vertex="1">
          <mxGeometry x="380" y="70" width="180" height="100" as="geometry" />
        </mxCell>
        <mxCell id="roUslabew1PH2xe0v3vM-25" value="" style="shape=partialRectangle;collapsible=0;dropTarget=0;pointerEvents=0;fillColor=none;top=0;left=0;bottom=0;right=0;points=[[0,0.5],[1,0.5]];portConstraint=eastwest;" parent="roUslabew1PH2xe0v3vM-24" vertex="1">
          <mxGeometry y="30" width="180" height="30" as="geometry" />
        </mxCell>
        <mxCell id="roUslabew1PH2xe0v3vM-26" value="PK,FK1" style="shape=partialRectangle;connectable=0;fillColor=none;top=0;left=0;bottom=0;right=0;fontStyle=1;overflow=hidden;" parent="roUslabew1PH2xe0v3vM-25" vertex="1">
          <mxGeometry width="60" height="30" as="geometry" />
        </mxCell>
        <mxCell id="roUslabew1PH2xe0v3vM-27" value="MediaItemId" style="shape=partialRectangle;connectable=0;fillColor=none;top=0;left=0;bottom=0;right=0;align=left;spacingLeft=6;fontStyle=5;overflow=hidden;" parent="roUslabew1PH2xe0v3vM-25" vertex="1">
          <mxGeometry x="60" width="120" height="30" as="geometry" />
        </mxCell>
        <mxCell id="roUslabew1PH2xe0v3vM-28" value="" style="shape=partialRectangle;collapsible=0;dropTarget=0;pointerEvents=0;fillColor=none;top=0;left=0;bottom=1;right=0;points=[[0,0.5],[1,0.5]];portConstraint=eastwest;" parent="roUslabew1PH2xe0v3vM-24" vertex="1">
          <mxGeometry y="60" width="180" height="30" as="geometry" />
        </mxCell>
        <mxCell id="roUslabew1PH2xe0v3vM-29" value="PK,FK2" style="shape=partialRectangle;connectable=0;fillColor=none;top=0;left=0;bottom=0;right=0;fontStyle=1;overflow=hidden;" parent="roUslabew1PH2xe0v3vM-28" vertex="1">
          <mxGeometry width="60" height="30" as="geometry" />
        </mxCell>
        <mxCell id="roUslabew1PH2xe0v3vM-30" value="ListId" style="shape=partialRectangle;connectable=0;fillColor=none;top=0;left=0;bottom=0;right=0;align=left;spacingLeft=6;fontStyle=5;overflow=hidden;" parent="roUslabew1PH2xe0v3vM-28" vertex="1">
          <mxGeometry x="60" width="120" height="30" as="geometry" />
        </mxCell>
      </root>
    </mxGraphModel>
  </diagram>
  <diagram id="J-g16x0bUwrBLnx638c-" name="Package Diagram">
    <mxGraphModel grid="1" gridSize="10" guides="1" tooltips="1" connect="1" arrows="1" page="1" fold="1" pageScale="1" pageWidth="827" pageHeight="1169" math="0" shadow="0">
      <root>
        <mxCell id="zBo10v9hbhoHT7qsSPf4-0" />
        <mxCell id="zBo10v9hbhoHT7qsSPf4-1" parent="zBo10v9hbhoHT7qsSPf4-0" />
        <mxCell id="nT22-D8biwSY4ahhRVDY-18" style="edgeStyle=orthogonalEdgeStyle;rounded=0;orthogonalLoop=1;jettySize=auto;html=1;exitX=0.25;exitY=1;exitDx=0;exitDy=0;exitPerimeter=0;dashed=1;endArrow=open;endFill=0;endSize=12;" edge="1" parent="zBo10v9hbhoHT7qsSPf4-1" source="nT22-D8biwSY4ahhRVDY-0">
          <mxGeometry relative="1" as="geometry">
            <mxPoint x="1810" y="516" as="targetPoint" />
            <Array as="points">
              <mxPoint x="1810" y="516" />
            </Array>
          </mxGeometry>
        </mxCell>
        <mxCell id="nT22-D8biwSY4ahhRVDY-0" value="ui" style="shape=folder;fontStyle=1;spacingTop=10;tabWidth=40;tabHeight=20;tabPosition=left;html=1;" vertex="1" parent="zBo10v9hbhoHT7qsSPf4-1">
          <mxGeometry x="1590" y="-190" width="880" height="420" as="geometry" />
        </mxCell>
        <mxCell id="nT22-D8biwSY4ahhRVDY-1" value="RecyclerView" style="shape=folder;fontStyle=1;spacingTop=10;tabWidth=40;tabHeight=14;tabPosition=left;html=1;" vertex="1" parent="zBo10v9hbhoHT7qsSPf4-1">
          <mxGeometry x="2247" y="-135" width="160" height="162.5" as="geometry" />
        </mxCell>
        <mxCell id="nT22-D8biwSY4ahhRVDY-2" value="Repository" style="shape=folder;fontStyle=1;spacingTop=10;tabWidth=40;tabHeight=14;tabPosition=left;html=1;" vertex="1" parent="zBo10v9hbhoHT7qsSPf4-1">
          <mxGeometry x="1540" y="500" width="480" height="400" as="geometry" />
        </mxCell>
        <mxCell id="nT22-D8biwSY4ahhRVDY-3" style="edgeStyle=orthogonalEdgeStyle;rounded=1;orthogonalLoop=1;jettySize=auto;html=1;exitX=0.75;exitY=1;exitDx=0;exitDy=0;exitPerimeter=0;entryX=0;entryY=0;entryDx=0;entryDy=87;entryPerimeter=0;dashed=1;endArrow=none;endFill=0;endSize=12;startArrow=open;startFill=0;startSize=12;" edge="1" parent="zBo10v9hbhoHT7qsSPf4-1" source="nT22-D8biwSY4ahhRVDY-5" target="nT22-D8biwSY4ahhRVDY-9">
          <mxGeometry relative="1" as="geometry" />
        </mxCell>
        <mxCell id="nT22-D8biwSY4ahhRVDY-4" style="edgeStyle=orthogonalEdgeStyle;rounded=1;orthogonalLoop=1;jettySize=auto;html=1;exitX=0.5;exitY=1;exitDx=0;exitDy=0;exitPerimeter=0;entryX=0.5;entryY=1;entryDx=0;entryDy=0;entryPerimeter=0;dashed=1;endArrow=none;endFill=0;endSize=12;startArrow=open;startFill=0;startSize=12;" edge="1" parent="zBo10v9hbhoHT7qsSPf4-1" source="nT22-D8biwSY4ahhRVDY-5" target="nT22-D8biwSY4ahhRVDY-10">
          <mxGeometry relative="1" as="geometry">
            <Array as="points">
              <mxPoint x="1260" y="810" />
              <mxPoint x="1914" y="810" />
            </Array>
          </mxGeometry>
        </mxCell>
        <mxCell id="nT22-D8biwSY4ahhRVDY-5" value="domain" style="shape=folder;fontStyle=1;spacingTop=10;tabWidth=40;tabHeight=14;tabPosition=left;html=1;" vertex="1" parent="zBo10v9hbhoHT7qsSPf4-1">
          <mxGeometry x="1120" y="277" width="280" height="180" as="geometry" />
        </mxCell>
        <mxCell id="nT22-D8biwSY4ahhRVDY-6" style="edgeStyle=none;rounded=1;orthogonalLoop=1;jettySize=auto;html=1;startArrow=cross;startFill=0;endArrow=open;endFill=0;entryX=0.824;entryY=0.079;entryDx=0;entryDy=0;entryPerimeter=0;exitX=0.145;exitY=1.003;exitDx=0;exitDy=0;exitPerimeter=0;dashed=1;" edge="1" parent="zBo10v9hbhoHT7qsSPf4-1" source="nT22-D8biwSY4ahhRVDY-0" target="nT22-D8biwSY4ahhRVDY-8">
          <mxGeometry relative="1" as="geometry">
            <mxPoint x="1784" y="260" as="sourcePoint" />
          </mxGeometry>
        </mxCell>
        <mxCell id="nT22-D8biwSY4ahhRVDY-7" style="edgeStyle=none;rounded=1;orthogonalLoop=1;jettySize=auto;html=1;entryX=0.364;entryY=0.029;entryDx=0;entryDy=0;entryPerimeter=0;startArrow=none;startFill=0;endArrow=open;endFill=0;dashed=1;exitX=0.812;exitY=0.996;exitDx=0;exitDy=0;exitPerimeter=0;" edge="1" parent="zBo10v9hbhoHT7qsSPf4-1" source="nT22-D8biwSY4ahhRVDY-8" target="nT22-D8biwSY4ahhRVDY-2">
          <mxGeometry relative="1" as="geometry" />
        </mxCell>
        <mxCell id="nT22-D8biwSY4ahhRVDY-8" value="applogic" style="shape=folder;fontStyle=1;spacingTop=10;tabWidth=40;tabHeight=14;tabPosition=left;html=1;" vertex="1" parent="zBo10v9hbhoHT7qsSPf4-1">
          <mxGeometry x="1586" y="282" width="160" height="160" as="geometry" />
        </mxCell>
        <mxCell id="nT22-D8biwSY4ahhRVDY-9" value="DAO" style="shape=folder;fontStyle=1;spacingTop=10;tabWidth=40;tabHeight=14;tabPosition=left;html=1;" vertex="1" parent="zBo10v9hbhoHT7qsSPf4-1">
          <mxGeometry x="1560" y="620" width="160" height="160" as="geometry" />
        </mxCell>
        <mxCell id="nT22-D8biwSY4ahhRVDY-10" value="API" style="shape=folder;fontStyle=1;spacingTop=10;tabWidth=40;tabHeight=14;tabPosition=left;html=1;" vertex="1" parent="zBo10v9hbhoHT7qsSPf4-1">
          <mxGeometry x="1833.5" y="620" width="160" height="160" as="geometry" />
        </mxCell>
        <mxCell id="nT22-D8biwSY4ahhRVDY-11" value="" style="endArrow=open;endFill=1;endSize=12;html=1;exitX=0;exitY=0;exitDx=0;exitDy=318.5;exitPerimeter=0;startArrow=cross;startFill=0;dashed=1;rounded=1;entryX=0.925;entryY=0.089;entryDx=0;entryDy=0;entryPerimeter=0;" edge="1" parent="zBo10v9hbhoHT7qsSPf4-1" source="nT22-D8biwSY4ahhRVDY-0" target="nT22-D8biwSY4ahhRVDY-5">
          <mxGeometry width="160" relative="1" as="geometry">
            <mxPoint x="1500" y="70" as="sourcePoint" />
            <mxPoint x="1660" y="70" as="targetPoint" />
            <Array as="points">
              <mxPoint x="1380" y="129" />
            </Array>
          </mxGeometry>
        </mxCell>
        <mxCell id="nT22-D8biwSY4ahhRVDY-12" value="" style="endArrow=open;endFill=1;endSize=12;html=1;exitX=0;exitY=0;exitDx=0;exitDy=87;exitPerimeter=0;startArrow=cross;startFill=0;dashed=1;" edge="1" parent="zBo10v9hbhoHT7qsSPf4-1" source="nT22-D8biwSY4ahhRVDY-8" target="nT22-D8biwSY4ahhRVDY-5">
          <mxGeometry width="160" relative="1" as="geometry">
            <mxPoint x="1540" y="320" as="sourcePoint" />
            <mxPoint x="1570" y="400" as="targetPoint" />
          </mxGeometry>
        </mxCell>
        <mxCell id="nT22-D8biwSY4ahhRVDY-13" value="home" style="shape=folder;fontStyle=1;spacingTop=10;tabWidth=40;tabHeight=20;tabPosition=left;html=1;" vertex="1" parent="zBo10v9hbhoHT7qsSPf4-1">
          <mxGeometry x="1650" y="-135" width="200" height="170" as="geometry" />
        </mxCell>
        <mxCell id="nT22-D8biwSY4ahhRVDY-14" value="search" style="shape=folder;fontStyle=1;spacingTop=10;tabWidth=40;tabHeight=14;tabPosition=left;html=1;" vertex="1" parent="zBo10v9hbhoHT7qsSPf4-1">
          <mxGeometry x="1800" y="50" width="180" height="160" as="geometry" />
        </mxCell>
        <mxCell id="nT22-D8biwSY4ahhRVDY-15" value="list" style="shape=folder;fontStyle=1;spacingTop=10;tabWidth=40;tabHeight=14;tabPosition=left;html=1;" vertex="1" parent="zBo10v9hbhoHT7qsSPf4-1">
          <mxGeometry x="1945" y="-125" width="190" height="160" as="geometry" />
        </mxCell>
        <mxCell id="nT22-D8biwSY4ahhRVDY-16" value="detail" style="shape=folder;fontStyle=1;spacingTop=10;tabWidth=40;tabHeight=14;tabPosition=left;html=1;" vertex="1" parent="zBo10v9hbhoHT7qsSPf4-1">
          <mxGeometry x="2100" y="50" width="190" height="160" as="geometry" />
        </mxCell>
        <mxCell id="nT22-D8biwSY4ahhRVDY-17" value="&lt;div&gt;ui&lt;/div&gt;" style="text;html=1;strokeColor=none;fillColor=none;align=center;verticalAlign=middle;whiteSpace=wrap;rounded=0;" vertex="1" parent="zBo10v9hbhoHT7qsSPf4-1">
          <mxGeometry x="1590" y="-190" width="40" height="20" as="geometry" />
        </mxCell>
      </root>
    </mxGraphModel>
  </diagram>
  <diagram id="TMHan8ep64xLUrntQzx1" name="Class Diagram">
    <mxGraphModel dx="2249" dy="1960" grid="1" gridSize="10" guides="1" tooltips="1" connect="1" arrows="1" fold="1" page="1" pageScale="1" pageWidth="827" pageHeight="1169" math="0" shadow="0">
      <root>
        <mxCell id="z_yEriSYOpLCQzva-ITz-0" />
        <mxCell id="z_yEriSYOpLCQzva-ITz-1" parent="z_yEriSYOpLCQzva-ITz-0" />
        <mxCell id="zmLQF4FTWcPdWol5sXau-0" value="ui" style="shape=folder;fontStyle=1;spacingTop=10;tabWidth=40;tabHeight=20;tabPosition=left;html=1;" parent="z_yEriSYOpLCQzva-ITz-1" vertex="1">
          <mxGeometry x="170" y="-390" width="920" height="670" as="geometry" />
        </mxCell>
        <mxCell id="zmLQF4FTWcPdWol5sXau-1" value="RecyclerView" style="shape=folder;fontStyle=1;spacingTop=10;tabWidth=40;tabHeight=14;tabPosition=left;html=1;" parent="z_yEriSYOpLCQzva-ITz-1" vertex="1">
          <mxGeometry x="650" y="-80" width="160" height="162.5" as="geometry" />
        </mxCell>
        <mxCell id="zmLQF4FTWcPdWol5sXau-2" value="data" style="shape=folder;fontStyle=1;spacingTop=10;tabWidth=40;tabHeight=14;tabPosition=left;html=1;" parent="z_yEriSYOpLCQzva-ITz-1" vertex="1">
          <mxGeometry x="120" y="550" width="480" height="400" as="geometry" />
        </mxCell>
        <mxCell id="zmLQF4FTWcPdWol5sXau-3" value="domain" style="shape=folder;fontStyle=1;spacingTop=10;tabWidth=40;tabHeight=14;tabPosition=left;html=1;" parent="z_yEriSYOpLCQzva-ITz-1" vertex="1">
          <mxGeometry x="-290" y="180" width="280" height="180" as="geometry" />
        </mxCell>
        <mxCell id="zmLQF4FTWcPdWol5sXau-4" style="edgeStyle=none;rounded=1;orthogonalLoop=1;jettySize=auto;html=1;startArrow=cross;startFill=0;endArrow=open;endFill=0;entryX=0;entryY=0;entryDx=100;entryDy=14;entryPerimeter=0;exitX=0.25;exitY=1;exitDx=0;exitDy=0;exitPerimeter=0;" parent="z_yEriSYOpLCQzva-ITz-1" source="zmLQF4FTWcPdWol5sXau-0" target="zmLQF4FTWcPdWol5sXau-9" edge="1">
          <mxGeometry relative="1" as="geometry">
            <mxPoint x="364" y="310" as="sourcePoint" />
          </mxGeometry>
        </mxCell>
        <mxCell id="zmLQF4FTWcPdWol5sXau-5" style="edgeStyle=none;rounded=1;orthogonalLoop=1;jettySize=auto;html=1;entryX=0;entryY=0;entryDx=100;entryDy=14;entryPerimeter=0;startArrow=none;startFill=0;endArrow=open;endFill=0;" parent="z_yEriSYOpLCQzva-ITz-1" source="zmLQF4FTWcPdWol5sXau-7" target="zmLQF4FTWcPdWol5sXau-10" edge="1">
          <mxGeometry relative="1" as="geometry" />
        </mxCell>
        <mxCell id="zmLQF4FTWcPdWol5sXau-6" style="edgeStyle=none;rounded=1;orthogonalLoop=1;jettySize=auto;html=1;entryX=0;entryY=0;entryDx=100;entryDy=14;entryPerimeter=0;startArrow=none;startFill=0;endArrow=open;endFill=0;exitX=0.75;exitY=1;exitDx=0;exitDy=0;exitPerimeter=0;" parent="z_yEriSYOpLCQzva-ITz-1" source="zmLQF4FTWcPdWol5sXau-7" target="zmLQF4FTWcPdWol5sXau-11" edge="1">
          <mxGeometry relative="1" as="geometry" />
        </mxCell>
        <mxCell id="zmLQF4FTWcPdWol5sXau-7" value="repository" style="shape=folder;fontStyle=1;spacingTop=10;tabWidth=40;tabHeight=14;tabPosition=left;html=1;" parent="z_yEriSYOpLCQzva-ITz-1" vertex="1">
          <mxGeometry x="290" y="570" width="160" height="160" as="geometry" />
        </mxCell>
        <mxCell id="zmLQF4FTWcPdWol5sXau-8" style="edgeStyle=none;rounded=1;orthogonalLoop=1;jettySize=auto;html=1;entryX=0.444;entryY=0.081;entryDx=0;entryDy=0;entryPerimeter=0;startArrow=none;startFill=0;endArrow=open;endFill=0;" parent="z_yEriSYOpLCQzva-ITz-1" source="zmLQF4FTWcPdWol5sXau-9" target="zmLQF4FTWcPdWol5sXau-7" edge="1">
          <mxGeometry relative="1" as="geometry" />
        </mxCell>
        <mxCell id="zmLQF4FTWcPdWol5sXau-9" value="applogic" style="shape=folder;fontStyle=1;spacingTop=10;tabWidth=40;tabHeight=14;tabPosition=left;html=1;" parent="z_yEriSYOpLCQzva-ITz-1" vertex="1">
          <mxGeometry x="280" y="330" width="160" height="160" as="geometry" />
        </mxCell>
        <mxCell id="zmLQF4FTWcPdWol5sXau-10" value="DAO" style="shape=folder;fontStyle=1;spacingTop=10;tabWidth=40;tabHeight=14;tabPosition=left;html=1;" parent="z_yEriSYOpLCQzva-ITz-1" vertex="1">
          <mxGeometry x="180" y="770" width="160" height="160" as="geometry" />
        </mxCell>
        <mxCell id="zmLQF4FTWcPdWol5sXau-11" value="API" style="shape=folder;fontStyle=1;spacingTop=10;tabWidth=40;tabHeight=14;tabPosition=left;html=1;" parent="z_yEriSYOpLCQzva-ITz-1" vertex="1">
          <mxGeometry x="370" y="770" width="160" height="160" as="geometry" />
        </mxCell>
        <mxCell id="zmLQF4FTWcPdWol5sXau-12" value="" style="endArrow=open;endFill=1;endSize=12;html=1;exitX=0;exitY=0;exitDx=0;exitDy=318.5;exitPerimeter=0;startArrow=cross;startFill=0;" parent="z_yEriSYOpLCQzva-ITz-1" source="zmLQF4FTWcPdWol5sXau-0" target="zmLQF4FTWcPdWol5sXau-3" edge="1">
          <mxGeometry width="160" relative="1" as="geometry">
            <mxPoint x="80" y="120" as="sourcePoint" />
            <mxPoint x="240" y="120" as="targetPoint" />
          </mxGeometry>
        </mxCell>
        <mxCell id="zmLQF4FTWcPdWol5sXau-13" value="" style="endArrow=open;endFill=1;endSize=12;html=1;exitX=0;exitY=0;exitDx=0;exitDy=87;exitPerimeter=0;startArrow=cross;startFill=0;" parent="z_yEriSYOpLCQzva-ITz-1" source="zmLQF4FTWcPdWol5sXau-9" target="zmLQF4FTWcPdWol5sXau-3" edge="1">
          <mxGeometry width="160" relative="1" as="geometry">
            <mxPoint x="120" y="370" as="sourcePoint" />
            <mxPoint x="150" y="450" as="targetPoint" />
          </mxGeometry>
        </mxCell>
        <mxCell id="zmLQF4FTWcPdWol5sXau-14" value="" style="shape=folder;fontStyle=1;spacingTop=10;tabWidth=40;tabHeight=20;tabPosition=left;html=1;" parent="z_yEriSYOpLCQzva-ITz-1" vertex="1">
          <mxGeometry x="190" y="-350" width="220" height="250" as="geometry" />
        </mxCell>
        <mxCell id="zmLQF4FTWcPdWol5sXau-15" value="search" style="shape=folder;fontStyle=1;spacingTop=10;tabWidth=40;tabHeight=14;tabPosition=left;html=1;" parent="z_yEriSYOpLCQzva-ITz-1" vertex="1">
          <mxGeometry x="190" y="110" width="180" height="160" as="geometry" />
        </mxCell>
        <mxCell id="zmLQF4FTWcPdWol5sXau-16" value="list" style="shape=folder;fontStyle=1;spacingTop=10;tabWidth=40;tabHeight=14;tabPosition=left;html=1;" parent="z_yEriSYOpLCQzva-ITz-1" vertex="1">
          <mxGeometry x="430" y="-80" width="190" height="160" as="geometry" />
        </mxCell>
        <mxCell id="zmLQF4FTWcPdWol5sXau-17" value="detail" style="shape=folder;fontStyle=1;spacingTop=10;tabWidth=40;tabHeight=14;tabPosition=left;html=1;" parent="z_yEriSYOpLCQzva-ITz-1" vertex="1">
          <mxGeometry x="430" y="110" width="190" height="160" as="geometry" />
        </mxCell>
        <mxCell id="zmLQF4FTWcPdWol5sXau-20" value="SearchFragment" style="html=1;" parent="z_yEriSYOpLCQzva-ITz-1" vertex="1">
          <mxGeometry x="225" y="130" width="110" height="50" as="geometry" />
        </mxCell>
        <mxCell id="zmLQF4FTWcPdWol5sXau-21" value="SearchViewModel" style="html=1;" parent="z_yEriSYOpLCQzva-ITz-1" vertex="1">
          <mxGeometry x="225" y="210" width="110" height="50" as="geometry" />
        </mxCell>
        <mxCell id="zmLQF4FTWcPdWol5sXau-22" value="DetailFragment" style="html=1;" parent="z_yEriSYOpLCQzva-ITz-1" vertex="1">
          <mxGeometry x="470" y="130" width="110" height="50" as="geometry" />
        </mxCell>
        <mxCell id="zmLQF4FTWcPdWol5sXau-23" value="DetailViewModel" style="html=1;" parent="z_yEriSYOpLCQzva-ITz-1" vertex="1">
          <mxGeometry x="470" y="210" width="110" height="50" as="geometry" />
        </mxCell>
        <mxCell id="zmLQF4FTWcPdWol5sXau-24" value="ListFragment" style="html=1;" parent="z_yEriSYOpLCQzva-ITz-1" vertex="1">
          <mxGeometry x="470" y="-60" width="110" height="50" as="geometry" />
        </mxCell>
        <mxCell id="zmLQF4FTWcPdWol5sXau-25" value="ListViewModel" style="html=1;" parent="z_yEriSYOpLCQzva-ITz-1" vertex="1">
          <mxGeometry x="470" y="20" width="110" height="50" as="geometry" />
        </mxCell>
        <mxCell id="zmLQF4FTWcPdWol5sXau-26" value="MediaItemAdapter" style="html=1;" parent="z_yEriSYOpLCQzva-ITz-1" vertex="1">
          <mxGeometry x="670" y="-60" width="120" height="50" as="geometry" />
        </mxCell>
        <mxCell id="zmLQF4FTWcPdWol5sXau-27" value="MediaItemViewHolder" style="html=1;" parent="z_yEriSYOpLCQzva-ITz-1" vertex="1">
          <mxGeometry x="665" y="20" width="130" height="50" as="geometry" />
        </mxCell>
        <mxCell id="zmLQF4FTWcPdWol5sXau-28" value="«interface»&lt;br&gt;&lt;b&gt;ApiInterface&lt;/b&gt;" style="html=1;" parent="z_yEriSYOpLCQzva-ITz-1" vertex="1">
          <mxGeometry x="395" y="870" width="110" height="50" as="geometry" />
        </mxCell>
        <mxCell id="zmLQF4FTWcPdWol5sXau-29" value="MediaItem" style="html=1;" parent="z_yEriSYOpLCQzva-ITz-1" vertex="1">
          <mxGeometry x="-280" y="200" width="110" height="50" as="geometry" />
        </mxCell>
        <mxCell id="zmLQF4FTWcPdWol5sXau-30" value="List" style="html=1;" parent="z_yEriSYOpLCQzva-ITz-1" vertex="1">
          <mxGeometry x="-280" y="290" width="110" height="50" as="geometry" />
        </mxCell>
        <mxCell id="zmLQF4FTWcPdWol5sXau-31" value="&lt;div&gt;Review&lt;/div&gt;" style="html=1;" parent="z_yEriSYOpLCQzva-ITz-1" vertex="1">
          <mxGeometry x="-140" y="290" width="110" height="50" as="geometry" />
        </mxCell>
        <mxCell id="zmLQF4FTWcPdWol5sXau-32" value="&lt;div&gt;ui&lt;/div&gt;" style="text;html=1;strokeColor=none;fillColor=none;align=center;verticalAlign=middle;whiteSpace=wrap;rounded=0;" parent="z_yEriSYOpLCQzva-ITz-1" vertex="1">
          <mxGeometry x="170" y="-390" width="40" height="20" as="geometry" />
        </mxCell>
        <mxCell id="zmLQF4FTWcPdWol5sXau-33" value="MainActivity" style="html=1;" parent="z_yEriSYOpLCQzva-ITz-1" vertex="1">
          <mxGeometry x="870" y="-30" width="110" height="50" as="geometry" />
        </mxCell>
        <mxCell id="zmLQF4FTWcPdWol5sXau-34" value="DetailActivity" style="html=1;" parent="z_yEriSYOpLCQzva-ITz-1" vertex="1">
          <mxGeometry x="870" y="120" width="110" height="50" as="geometry" />
        </mxCell>
        <mxCell id="zmLQF4FTWcPdWol5sXau-35" value="APIcontroller" style="html=1;" parent="z_yEriSYOpLCQzva-ITz-1" vertex="1">
          <mxGeometry x="395" y="790" width="110" height="50" as="geometry" />
        </mxCell>
        <mxCell id="zmLQF4FTWcPdWol5sXau-36" value="&lt;div&gt;DataController&lt;/div&gt;" style="html=1;" parent="z_yEriSYOpLCQzva-ITz-1" vertex="1">
          <mxGeometry x="315" y="670" width="110" height="50" as="geometry" />
        </mxCell>
        <mxCell id="zmLQF4FTWcPdWol5sXau-37" value="&lt;div&gt;DataManager&lt;/div&gt;" style="html=1;" parent="z_yEriSYOpLCQzva-ITz-1" vertex="1">
          <mxGeometry x="305" y="430" width="110" height="50" as="geometry" />
        </mxCell>
        <mxCell id="zmLQF4FTWcPdWol5sXau-38" value="MediaItemResponse" style="html=1;" parent="z_yEriSYOpLCQzva-ITz-1" vertex="1">
          <mxGeometry x="-150" y="200" width="130" height="50" as="geometry" />
        </mxCell>
        <mxCell id="iVm3QgsRl2UQL1tBXEsS-0" value="&lt;div&gt;home&lt;/div&gt;" style="text;html=1;strokeColor=none;fillColor=none;align=center;verticalAlign=middle;whiteSpace=wrap;rounded=0;" parent="z_yEriSYOpLCQzva-ITz-1" vertex="1">
          <mxGeometry x="190" y="-350" width="40" height="20" as="geometry" />
        </mxCell>
        <mxCell id="iVm3QgsRl2UQL1tBXEsS-1" value="HomeFragment" style="swimlane;fontStyle=1;align=center;verticalAlign=top;childLayout=stackLayout;horizontal=1;startSize=26;horizontalStack=0;resizeParent=1;resizeParentMax=0;resizeLast=0;collapsible=1;marginBottom=0;" parent="z_yEriSYOpLCQzva-ITz-1" vertex="1">
          <mxGeometry x="220" y="-310" width="160" height="86" as="geometry" />
        </mxCell>
        <mxCell id="iVm3QgsRl2UQL1tBXEsS-2" value="+ field: type" style="text;strokeColor=none;fillColor=none;align=left;verticalAlign=top;spacingLeft=4;spacingRight=4;overflow=hidden;rotatable=0;points=[[0,0.5],[1,0.5]];portConstraint=eastwest;" parent="iVm3QgsRl2UQL1tBXEsS-1" vertex="1">
          <mxGeometry y="26" width="160" height="26" as="geometry" />
        </mxCell>
        <mxCell id="iVm3QgsRl2UQL1tBXEsS-3" value="" style="line;strokeWidth=1;fillColor=none;align=left;verticalAlign=middle;spacingTop=-1;spacingLeft=3;spacingRight=3;rotatable=0;labelPosition=right;points=[];portConstraint=eastwest;" parent="iVm3QgsRl2UQL1tBXEsS-1" vertex="1">
          <mxGeometry y="52" width="160" height="8" as="geometry" />
        </mxCell>
        <mxCell id="iVm3QgsRl2UQL1tBXEsS-4" value="+ method(type): type" style="text;strokeColor=none;fillColor=none;align=left;verticalAlign=top;spacingLeft=4;spacingRight=4;overflow=hidden;rotatable=0;points=[[0,0.5],[1,0.5]];portConstraint=eastwest;" parent="iVm3QgsRl2UQL1tBXEsS-1" vertex="1">
          <mxGeometry y="60" width="160" height="26" as="geometry" />
        </mxCell>
        <mxCell id="iVm3QgsRl2UQL1tBXEsS-5" value="HomeViewModel" style="swimlane;fontStyle=1;align=center;verticalAlign=top;childLayout=stackLayout;horizontal=1;startSize=26;horizontalStack=0;resizeParent=1;resizeParentMax=0;resizeLast=0;collapsible=1;marginBottom=0;" parent="z_yEriSYOpLCQzva-ITz-1" vertex="1">
          <mxGeometry x="220" y="-200" width="160" height="86" as="geometry" />
        </mxCell>
        <mxCell id="iVm3QgsRl2UQL1tBXEsS-6" value="+ field: type" style="text;strokeColor=none;fillColor=none;align=left;verticalAlign=top;spacingLeft=4;spacingRight=4;overflow=hidden;rotatable=0;points=[[0,0.5],[1,0.5]];portConstraint=eastwest;" parent="iVm3QgsRl2UQL1tBXEsS-5" vertex="1">
          <mxGeometry y="26" width="160" height="26" as="geometry" />
        </mxCell>
        <mxCell id="iVm3QgsRl2UQL1tBXEsS-7" value="" style="line;strokeWidth=1;fillColor=none;align=left;verticalAlign=middle;spacingTop=-1;spacingLeft=3;spacingRight=3;rotatable=0;labelPosition=right;points=[];portConstraint=eastwest;" parent="iVm3QgsRl2UQL1tBXEsS-5" vertex="1">
          <mxGeometry y="52" width="160" height="8" as="geometry" />
        </mxCell>
        <mxCell id="iVm3QgsRl2UQL1tBXEsS-8" value="+ method(type): type" style="text;strokeColor=none;fillColor=none;align=left;verticalAlign=top;spacingLeft=4;spacingRight=4;overflow=hidden;rotatable=0;points=[[0,0.5],[1,0.5]];portConstraint=eastwest;" parent="iVm3QgsRl2UQL1tBXEsS-5" vertex="1">
          <mxGeometry y="60" width="160" height="26" as="geometry" />
        </mxCell>
      </root>
    </mxGraphModel>
  </diagram>
  <diagram id="c--ZWRGK14Jw6gKtrsHF" name="Activity diagram">
    <mxGraphModel dx="3671" dy="413" grid="1" gridSize="10" guides="1" tooltips="1" connect="1" arrows="1" fold="1" page="1" pageScale="1" pageWidth="827" pageHeight="1169" math="0" shadow="0">
      <root>
        <mxCell id="H5sYtzii5KLrwhcXaRjJ-0" />
        <mxCell id="H5sYtzii5KLrwhcXaRjJ-1" parent="H5sYtzii5KLrwhcXaRjJ-0" />
        <mxCell id="yq6eTf2_uC1WpVy0FtSs-117" value="Pool" style="swimlane;html=1;childLayout=stackLayout;resizeParent=1;resizeParentMax=0;startSize=20;" parent="H5sYtzii5KLrwhcXaRjJ-1" vertex="1">
          <mxGeometry x="-250" y="1490" width="1600" height="1600" as="geometry" />
        </mxCell>
        <mxCell id="yq6eTf2_uC1WpVy0FtSs-118" value="UI" style="swimlane;html=1;startSize=20;" parent="yq6eTf2_uC1WpVy0FtSs-117" vertex="1">
          <mxGeometry y="20" width="550" height="1580" as="geometry" />
        </mxCell>
        <mxCell id="yq6eTf2_uC1WpVy0FtSs-128" value="" style="ellipse;html=1;shape=startState;fillColor=#000000;strokeColor=#ff0000;" parent="yq6eTf2_uC1WpVy0FtSs-118" vertex="1">
          <mxGeometry x="119" y="60" width="30" height="30" as="geometry" />
        </mxCell>
        <mxCell id="yq6eTf2_uC1WpVy0FtSs-129" value="" style="edgeStyle=orthogonalEdgeStyle;html=1;verticalAlign=bottom;endArrow=open;endSize=8;strokeColor=#ff0000;entryX=0.5;entryY=0;entryDx=0;entryDy=0;" parent="yq6eTf2_uC1WpVy0FtSs-118" source="yq6eTf2_uC1WpVy0FtSs-128" target="yq6eTf2_uC1WpVy0FtSs-130" edge="1">
          <mxGeometry relative="1" as="geometry">
            <mxPoint x="390" y="75" as="targetPoint" />
          </mxGeometry>
        </mxCell>
        <mxCell id="yq6eTf2_uC1WpVy0FtSs-130" value="[mainactivity] onCreate()" style="rounded=1;whiteSpace=wrap;html=1;arcSize=40;fontColor=#000000;fillColor=#ffffc0;strokeColor=#ff0000;" parent="yq6eTf2_uC1WpVy0FtSs-118" vertex="1">
          <mxGeometry x="74" y="140" width="120" height="40" as="geometry" />
        </mxCell>
        <mxCell id="DdvpAgsueGasw1kv_X5w-0" value="[HomeFragment] onCreate()" style="rounded=1;whiteSpace=wrap;html=1;arcSize=40;fontColor=#000000;fillColor=#ffffc0;strokeColor=#ff0000;" vertex="1" parent="yq6eTf2_uC1WpVy0FtSs-118">
          <mxGeometry x="74" y="260" width="120" height="40" as="geometry" />
        </mxCell>
        <mxCell id="DdvpAgsueGasw1kv_X5w-1" value="" style="edgeStyle=orthogonalEdgeStyle;html=1;verticalAlign=bottom;endArrow=open;endSize=8;strokeColor=#ff0000;entryX=0.47;entryY=0.6;entryDx=0;entryDy=0;entryPerimeter=0;" edge="1" source="DdvpAgsueGasw1kv_X5w-0" parent="yq6eTf2_uC1WpVy0FtSs-118" target="DdvpAgsueGasw1kv_X5w-4">
          <mxGeometry relative="1" as="geometry">
            <mxPoint x="134" y="360" as="targetPoint" />
          </mxGeometry>
        </mxCell>
        <mxCell id="yq6eTf2_uC1WpVy0FtSs-131" value="" style="edgeStyle=orthogonalEdgeStyle;html=1;verticalAlign=bottom;endArrow=open;endSize=8;strokeColor=#ff0000;" parent="yq6eTf2_uC1WpVy0FtSs-118" source="yq6eTf2_uC1WpVy0FtSs-130" edge="1" target="DdvpAgsueGasw1kv_X5w-0">
          <mxGeometry relative="1" as="geometry">
            <mxPoint x="350" y="160" as="targetPoint" />
          </mxGeometry>
        </mxCell>
        <mxCell id="DdvpAgsueGasw1kv_X5w-4" value="" style="shape=line;html=1;strokeWidth=6;strokeColor=#ff0000;direction=east;" vertex="1" parent="yq6eTf2_uC1WpVy0FtSs-118">
          <mxGeometry x="40" y="370" width="200" height="10" as="geometry" />
        </mxCell>
        <mxCell id="DdvpAgsueGasw1kv_X5w-11" value="[HomeViewModel] loadTrendingMediaItems" style="rounded=1;whiteSpace=wrap;html=1;arcSize=40;fontColor=#000000;fillColor=#ffffc0;strokeColor=#ff0000;" vertex="1" parent="yq6eTf2_uC1WpVy0FtSs-118">
          <mxGeometry x="56.5" y="520" width="177" height="40" as="geometry" />
        </mxCell>
        <mxCell id="DdvpAgsueGasw1kv_X5w-8" value="" style="edgeStyle=orthogonalEdgeStyle;html=1;verticalAlign=bottom;endArrow=open;endSize=8;strokeColor=#ff0000;exitX=0;exitY=0.5;exitDx=0;exitDy=0;exitPerimeter=0;entryX=0;entryY=0.5;entryDx=0;entryDy=0;" edge="1" parent="yq6eTf2_uC1WpVy0FtSs-118" source="DdvpAgsueGasw1kv_X5w-4" target="DdvpAgsueGasw1kv_X5w-11">
          <mxGeometry relative="1" as="geometry">
            <mxPoint x="380" y="555" as="targetPoint" />
            <mxPoint x="129" y="530" as="sourcePoint" />
            <Array as="points">
              <mxPoint x="40" y="540" />
            </Array>
          </mxGeometry>
        </mxCell>
        <mxCell id="DdvpAgsueGasw1kv_X5w-9" value="[HomeViewModel] loadTrendingMediaItems" style="rounded=1;whiteSpace=wrap;html=1;arcSize=40;fontColor=#000000;fillColor=#ffffc0;strokeColor=#ff0000;" vertex="1" parent="yq6eTf2_uC1WpVy0FtSs-118">
          <mxGeometry x="80" y="460" width="178" height="40" as="geometry" />
        </mxCell>
        <mxCell id="DdvpAgsueGasw1kv_X5w-5" value="" style="edgeStyle=orthogonalEdgeStyle;html=1;verticalAlign=bottom;endArrow=open;endSize=8;strokeColor=#ff0000;exitX=0.093;exitY=0.572;exitDx=0;exitDy=0;exitPerimeter=0;entryX=0;entryY=0.5;entryDx=0;entryDy=0;" edge="1" source="DdvpAgsueGasw1kv_X5w-4" parent="yq6eTf2_uC1WpVy0FtSs-118" target="DdvpAgsueGasw1kv_X5w-9">
          <mxGeometry relative="1" as="geometry">
            <mxPoint x="390" y="460" as="targetPoint" />
            <mxPoint x="159" y="580" as="sourcePoint" />
            <Array as="points">
              <mxPoint x="59" y="480" />
            </Array>
          </mxGeometry>
        </mxCell>
        <mxCell id="DdvpAgsueGasw1kv_X5w-13" value="&lt;div&gt;[HomeViewModel]&lt;/div&gt;&lt;div&gt;loadWatchLaterMediaItems&lt;/div&gt;" style="rounded=1;whiteSpace=wrap;html=1;arcSize=40;fontColor=#000000;fillColor=#ffffc0;strokeColor=#ff0000;" vertex="1" parent="yq6eTf2_uC1WpVy0FtSs-118">
          <mxGeometry x="100" y="400" width="175" height="40" as="geometry" />
        </mxCell>
        <mxCell id="DdvpAgsueGasw1kv_X5w-19" value="" style="edgeStyle=orthogonalEdgeStyle;html=1;verticalAlign=bottom;endArrow=open;endSize=8;strokeColor=#ff0000;exitX=0.169;exitY=0.641;exitDx=0;exitDy=0;exitPerimeter=0;entryX=0;entryY=0.5;entryDx=0;entryDy=0;" edge="1" parent="yq6eTf2_uC1WpVy0FtSs-118" source="DdvpAgsueGasw1kv_X5w-4" target="DdvpAgsueGasw1kv_X5w-13">
          <mxGeometry relative="1" as="geometry">
            <mxPoint x="435" y="350" as="targetPoint" />
            <mxPoint x="435" y="290" as="sourcePoint" />
            <Array as="points">
              <mxPoint x="74" y="420" />
            </Array>
          </mxGeometry>
        </mxCell>
        <mxCell id="DdvpAgsueGasw1kv_X5w-36" value="&lt;div&gt;[HomeFragment]&lt;/div&gt;&lt;div&gt;onMediaItemsChanged&lt;br&gt;&lt;/div&gt;" style="rounded=1;whiteSpace=wrap;html=1;arcSize=40;fontColor=#000000;fillColor=#ffffc0;strokeColor=#ff0000;" vertex="1" parent="yq6eTf2_uC1WpVy0FtSs-118">
          <mxGeometry x="62.25" y="600" width="143.5" height="40" as="geometry" />
        </mxCell>
        <mxCell id="DdvpAgsueGasw1kv_X5w-49" value="&lt;div&gt;[HomeViewModel]&lt;/div&gt;&lt;div&gt;onMediaItemsChanged&lt;br&gt;&lt;/div&gt;" style="rounded=1;whiteSpace=wrap;html=1;arcSize=40;fontColor=#000000;fillColor=#ffffc0;strokeColor=#ff0000;" vertex="1" parent="yq6eTf2_uC1WpVy0FtSs-118">
          <mxGeometry x="204" y="650" width="142" height="40" as="geometry" />
        </mxCell>
        <mxCell id="DdvpAgsueGasw1kv_X5w-50" value="" style="edgeStyle=orthogonalEdgeStyle;html=1;verticalAlign=bottom;endArrow=open;endSize=8;strokeColor=#ff0000;" edge="1" source="DdvpAgsueGasw1kv_X5w-49" parent="yq6eTf2_uC1WpVy0FtSs-118" target="DdvpAgsueGasw1kv_X5w-55">
          <mxGeometry relative="1" as="geometry">
            <mxPoint x="225" y="740" as="targetPoint" />
          </mxGeometry>
        </mxCell>
        <mxCell id="DdvpAgsueGasw1kv_X5w-51" value="&lt;div&gt;[HomeViewModel]&lt;/div&gt;&lt;div&gt;onMediaItemsChanged&lt;br&gt;&lt;/div&gt;" style="rounded=1;whiteSpace=wrap;html=1;arcSize=40;fontColor=#000000;fillColor=#ffffc0;strokeColor=#ff0000;" vertex="1" parent="yq6eTf2_uC1WpVy0FtSs-118">
          <mxGeometry x="346" y="700" width="140" height="40" as="geometry" />
        </mxCell>
        <mxCell id="DdvpAgsueGasw1kv_X5w-52" value="" style="edgeStyle=orthogonalEdgeStyle;html=1;verticalAlign=bottom;endArrow=open;endSize=8;strokeColor=#ff0000;entryX=0.5;entryY=0;entryDx=0;entryDy=0;" edge="1" source="DdvpAgsueGasw1kv_X5w-51" parent="yq6eTf2_uC1WpVy0FtSs-118" target="DdvpAgsueGasw1kv_X5w-53">
          <mxGeometry relative="1" as="geometry">
            <mxPoint x="340" y="790" as="targetPoint" />
          </mxGeometry>
        </mxCell>
        <mxCell id="DdvpAgsueGasw1kv_X5w-53" value="&lt;div&gt;[HomeView]&lt;/div&gt;&lt;div&gt;watchLaterMediaItems.setValue()&lt;br&gt;&lt;/div&gt;" style="rounded=1;whiteSpace=wrap;html=1;arcSize=40;fontColor=#000000;fillColor=#ffffc0;strokeColor=#ff0000;" vertex="1" parent="yq6eTf2_uC1WpVy0FtSs-118">
          <mxGeometry x="321" y="810" width="190" height="40" as="geometry" />
        </mxCell>
        <mxCell id="DdvpAgsueGasw1kv_X5w-54" value="" style="edgeStyle=orthogonalEdgeStyle;html=1;verticalAlign=bottom;endArrow=open;endSize=8;strokeColor=#ff0000;entryX=0.5;entryY=0;entryDx=0;entryDy=0;" edge="1" source="DdvpAgsueGasw1kv_X5w-53" parent="yq6eTf2_uC1WpVy0FtSs-118" target="DdvpAgsueGasw1kv_X5w-67">
          <mxGeometry relative="1" as="geometry">
            <mxPoint x="410" y="910" as="targetPoint" />
            <Array as="points">
              <mxPoint x="414" y="960" />
              <mxPoint x="414" y="960" />
            </Array>
          </mxGeometry>
        </mxCell>
        <mxCell id="DdvpAgsueGasw1kv_X5w-55" value="&lt;div&gt;[Homeview]&lt;/div&gt;&lt;div&gt;trendingMediaItems.setValue()&lt;br&gt;&lt;/div&gt;" style="rounded=1;whiteSpace=wrap;html=1;arcSize=40;fontColor=#000000;fillColor=#ffffc0;strokeColor=#ff0000;" vertex="1" parent="yq6eTf2_uC1WpVy0FtSs-118">
          <mxGeometry x="183" y="760" width="184" height="40" as="geometry" />
        </mxCell>
        <mxCell id="DdvpAgsueGasw1kv_X5w-56" value="" style="edgeStyle=orthogonalEdgeStyle;html=1;verticalAlign=bottom;endArrow=open;endSize=8;strokeColor=#ff0000;entryX=0.5;entryY=0;entryDx=0;entryDy=0;" edge="1" source="DdvpAgsueGasw1kv_X5w-55" parent="yq6eTf2_uC1WpVy0FtSs-118" target="DdvpAgsueGasw1kv_X5w-64">
          <mxGeometry relative="1" as="geometry">
            <mxPoint x="275" y="840" as="targetPoint" />
          </mxGeometry>
        </mxCell>
        <mxCell id="DdvpAgsueGasw1kv_X5w-57" value="&lt;div&gt;[HomeView]&lt;/div&gt;&lt;div&gt;topRatedMediaItems.setValue()&lt;br&gt;&lt;/div&gt;" style="rounded=1;whiteSpace=wrap;html=1;arcSize=40;fontColor=#000000;fillColor=#ffffc0;strokeColor=#ff0000;" vertex="1" parent="yq6eTf2_uC1WpVy0FtSs-118">
          <mxGeometry x="40" y="710" width="186" height="40" as="geometry" />
        </mxCell>
        <mxCell id="DdvpAgsueGasw1kv_X5w-58" value="" style="edgeStyle=orthogonalEdgeStyle;html=1;verticalAlign=bottom;endArrow=open;endSize=8;strokeColor=#ff0000;entryX=0.5;entryY=0;entryDx=0;entryDy=0;" edge="1" source="DdvpAgsueGasw1kv_X5w-57" parent="yq6eTf2_uC1WpVy0FtSs-118" target="DdvpAgsueGasw1kv_X5w-59">
          <mxGeometry relative="1" as="geometry">
            <mxPoint x="133" y="820" as="targetPoint" />
            <Array as="points" />
          </mxGeometry>
        </mxCell>
        <mxCell id="DdvpAgsueGasw1kv_X5w-37" value="" style="edgeStyle=orthogonalEdgeStyle;html=1;verticalAlign=bottom;endArrow=open;endSize=8;strokeColor=#ff0000;entryX=0.5;entryY=0;entryDx=0;entryDy=0;" edge="1" source="DdvpAgsueGasw1kv_X5w-36" parent="yq6eTf2_uC1WpVy0FtSs-118" target="DdvpAgsueGasw1kv_X5w-57">
          <mxGeometry relative="1" as="geometry">
            <mxPoint x="234" y="720" as="targetPoint" />
            <Array as="points">
              <mxPoint x="134" y="710" />
            </Array>
          </mxGeometry>
        </mxCell>
        <mxCell id="DdvpAgsueGasw1kv_X5w-59" value="&lt;div&gt;[HomeFragment]&lt;/div&gt;&lt;div&gt;onChanged()&lt;br&gt;&lt;/div&gt;" style="rounded=1;whiteSpace=wrap;html=1;arcSize=40;fontColor=#000000;fillColor=#ffffc0;strokeColor=#ff0000;" vertex="1" parent="yq6eTf2_uC1WpVy0FtSs-118">
          <mxGeometry x="73" y="880" width="120" height="40" as="geometry" />
        </mxCell>
        <mxCell id="DdvpAgsueGasw1kv_X5w-64" value="&lt;div&gt;[HomeFragment]&lt;/div&gt;&lt;div&gt;onChanged()&lt;br&gt;&lt;/div&gt;" style="rounded=1;whiteSpace=wrap;html=1;arcSize=40;fontColor=#000000;fillColor=#ffffc0;strokeColor=#ff0000;" vertex="1" parent="yq6eTf2_uC1WpVy0FtSs-118">
          <mxGeometry x="181.5" y="940" width="187" height="40" as="geometry" />
        </mxCell>
        <mxCell id="DdvpAgsueGasw1kv_X5w-65" value="" style="edgeStyle=orthogonalEdgeStyle;html=1;verticalAlign=bottom;endArrow=open;endSize=8;strokeColor=#ff0000;entryX=0.5;entryY=0;entryDx=0;entryDy=0;" edge="1" parent="yq6eTf2_uC1WpVy0FtSs-118" source="DdvpAgsueGasw1kv_X5w-64" target="DdvpAgsueGasw1kv_X5w-73">
          <mxGeometry relative="1" as="geometry">
            <mxPoint x="277" y="1030" as="targetPoint" />
          </mxGeometry>
        </mxCell>
        <mxCell id="DdvpAgsueGasw1kv_X5w-67" value="&lt;div&gt;[HomeFragment]&lt;/div&gt;&lt;div&gt;onChanged()&lt;br&gt;&lt;/div&gt;" style="rounded=1;whiteSpace=wrap;html=1;arcSize=40;fontColor=#000000;fillColor=#ffffc0;strokeColor=#ff0000;" vertex="1" parent="yq6eTf2_uC1WpVy0FtSs-118">
          <mxGeometry x="320" y="990" width="187" height="40" as="geometry" />
        </mxCell>
        <mxCell id="DdvpAgsueGasw1kv_X5w-68" value="" style="edgeStyle=orthogonalEdgeStyle;html=1;verticalAlign=bottom;endArrow=open;endSize=8;strokeColor=#ff0000;" edge="1" parent="yq6eTf2_uC1WpVy0FtSs-118" source="DdvpAgsueGasw1kv_X5w-67" target="DdvpAgsueGasw1kv_X5w-71">
          <mxGeometry relative="1" as="geometry">
            <mxPoint x="418" y="1080" as="targetPoint" />
          </mxGeometry>
        </mxCell>
        <mxCell id="DdvpAgsueGasw1kv_X5w-71" value="&lt;div&gt;[HomeFragment]&lt;/div&gt;&lt;div&gt;watchLaterAdapter.setMediaItems()&lt;br&gt;&lt;/div&gt;" style="rounded=1;whiteSpace=wrap;html=1;arcSize=40;fontColor=#000000;fillColor=#ffffc0;strokeColor=#ff0000;" vertex="1" parent="yq6eTf2_uC1WpVy0FtSs-118">
          <mxGeometry x="310" y="1210" width="207" height="40" as="geometry" />
        </mxCell>
        <mxCell id="DdvpAgsueGasw1kv_X5w-72" value="" style="edgeStyle=orthogonalEdgeStyle;html=1;verticalAlign=bottom;endArrow=open;endSize=8;strokeColor=#ff0000;entryX=0.829;entryY=0.683;entryDx=0;entryDy=0;entryPerimeter=0;" edge="1" source="DdvpAgsueGasw1kv_X5w-71" parent="yq6eTf2_uC1WpVy0FtSs-118" target="DdvpAgsueGasw1kv_X5w-77">
          <mxGeometry relative="1" as="geometry">
            <mxPoint x="423" y="1330" as="targetPoint" />
          </mxGeometry>
        </mxCell>
        <mxCell id="DdvpAgsueGasw1kv_X5w-73" value="&lt;div&gt;[HomeFragment]&lt;/div&gt;&lt;div&gt;trendingAdapter.setMediaItems()&lt;br&gt;&lt;/div&gt;" style="rounded=1;whiteSpace=wrap;html=1;arcSize=40;fontColor=#000000;fillColor=#ffffc0;strokeColor=#ff0000;" vertex="1" parent="yq6eTf2_uC1WpVy0FtSs-118">
          <mxGeometry x="171.5" y="1120" width="207" height="40" as="geometry" />
        </mxCell>
        <mxCell id="DdvpAgsueGasw1kv_X5w-74" value="" style="edgeStyle=orthogonalEdgeStyle;html=1;verticalAlign=bottom;endArrow=open;endSize=8;strokeColor=#ff0000;" edge="1" parent="yq6eTf2_uC1WpVy0FtSs-118" source="DdvpAgsueGasw1kv_X5w-73" target="DdvpAgsueGasw1kv_X5w-77">
          <mxGeometry relative="1" as="geometry">
            <mxPoint x="285" y="1200" as="targetPoint" />
          </mxGeometry>
        </mxCell>
        <mxCell id="DdvpAgsueGasw1kv_X5w-75" value="&lt;div&gt;[HomeFragment]&lt;/div&gt;&lt;div&gt;topRatedAdapter.setMediaItems()&lt;br&gt;&lt;/div&gt;" style="rounded=1;whiteSpace=wrap;html=1;arcSize=40;fontColor=#000000;fillColor=#ffffc0;strokeColor=#ff0000;" vertex="1" parent="yq6eTf2_uC1WpVy0FtSs-118">
          <mxGeometry x="30.5" y="1060" width="207" height="40" as="geometry" />
        </mxCell>
        <mxCell id="DdvpAgsueGasw1kv_X5w-60" value="" style="edgeStyle=orthogonalEdgeStyle;html=1;verticalAlign=bottom;endArrow=open;endSize=8;strokeColor=#ff0000;entryX=0.5;entryY=0;entryDx=0;entryDy=0;" edge="1" source="DdvpAgsueGasw1kv_X5w-59" parent="yq6eTf2_uC1WpVy0FtSs-118" target="DdvpAgsueGasw1kv_X5w-75">
          <mxGeometry relative="1" as="geometry">
            <mxPoint x="133" y="950" as="targetPoint" />
          </mxGeometry>
        </mxCell>
        <mxCell id="DdvpAgsueGasw1kv_X5w-77" value="" style="shape=line;html=1;strokeWidth=6;strokeColor=#ff0000;" vertex="1" parent="yq6eTf2_uC1WpVy0FtSs-118">
          <mxGeometry x="65" y="1360" width="420" height="10" as="geometry" />
        </mxCell>
        <mxCell id="DdvpAgsueGasw1kv_X5w-78" value="" style="edgeStyle=orthogonalEdgeStyle;html=1;verticalAlign=bottom;endArrow=open;endSize=8;strokeColor=#ff0000;entryX=0.5;entryY=0;entryDx=0;entryDy=0;" edge="1" source="DdvpAgsueGasw1kv_X5w-77" parent="yq6eTf2_uC1WpVy0FtSs-118" target="DdvpAgsueGasw1kv_X5w-79">
          <mxGeometry relative="1" as="geometry">
            <mxPoint x="249" y="1420" as="targetPoint" />
          </mxGeometry>
        </mxCell>
        <mxCell id="DdvpAgsueGasw1kv_X5w-76" value="" style="edgeStyle=orthogonalEdgeStyle;html=1;verticalAlign=bottom;endArrow=open;endSize=8;strokeColor=#ff0000;entryX=0.164;entryY=0.6;entryDx=0;entryDy=0;entryPerimeter=0;" edge="1" parent="yq6eTf2_uC1WpVy0FtSs-118" source="DdvpAgsueGasw1kv_X5w-75" target="DdvpAgsueGasw1kv_X5w-77">
          <mxGeometry relative="1" as="geometry">
            <mxPoint x="134" y="1160" as="targetPoint" />
          </mxGeometry>
        </mxCell>
        <mxCell id="DdvpAgsueGasw1kv_X5w-79" value="" style="ellipse;html=1;shape=endState;fillColor=#000000;strokeColor=#ff0000;" vertex="1" parent="yq6eTf2_uC1WpVy0FtSs-118">
          <mxGeometry x="260" y="1490" width="30" height="30" as="geometry" />
        </mxCell>
        <mxCell id="yq6eTf2_uC1WpVy0FtSs-120" value="appLogic" style="swimlane;html=1;startSize=20;" parent="yq6eTf2_uC1WpVy0FtSs-117" vertex="1">
          <mxGeometry x="550" y="20" width="300" height="1580" as="geometry" />
        </mxCell>
        <mxCell id="DdvpAgsueGasw1kv_X5w-20" value="&lt;div&gt;[DataManager]&lt;/div&gt;&lt;div&gt;loadWatchLaterMediaItems&lt;/div&gt;" style="rounded=1;whiteSpace=wrap;html=1;arcSize=40;fontColor=#000000;fillColor=#ffffc0;strokeColor=#ff0000;" vertex="1" parent="yq6eTf2_uC1WpVy0FtSs-120">
          <mxGeometry x="60" y="400" width="180" height="40" as="geometry" />
        </mxCell>
        <mxCell id="DdvpAgsueGasw1kv_X5w-22" value="&lt;div&gt;[DataManager]&lt;/div&gt;&lt;div&gt;loadTrendingMediaItems&lt;/div&gt;" style="rounded=1;whiteSpace=wrap;html=1;arcSize=40;fontColor=#000000;fillColor=#ffffc0;strokeColor=#ff0000;" vertex="1" parent="yq6eTf2_uC1WpVy0FtSs-120">
          <mxGeometry x="60" y="460" width="186" height="40" as="geometry" />
        </mxCell>
        <mxCell id="DdvpAgsueGasw1kv_X5w-26" value="&lt;div&gt;[DataManager]&lt;/div&gt;&lt;div&gt;&lt;div&gt;loadTopRatedMediaItems&lt;/div&gt;&lt;/div&gt;" style="rounded=1;whiteSpace=wrap;html=1;arcSize=40;fontColor=#000000;fillColor=#ffffc0;strokeColor=#ff0000;" vertex="1" parent="yq6eTf2_uC1WpVy0FtSs-120">
          <mxGeometry x="60" y="520" width="186" height="40" as="geometry" />
        </mxCell>
        <mxCell id="yq6eTf2_uC1WpVy0FtSs-122" value="API" style="swimlane;html=1;startSize=20;" parent="yq6eTf2_uC1WpVy0FtSs-117" vertex="1">
          <mxGeometry x="850" y="20" width="750" height="1580" as="geometry" />
        </mxCell>
        <mxCell id="DdvpAgsueGasw1kv_X5w-29" value="&lt;div&gt;[DataController]&lt;/div&gt;&lt;div&gt;loadWatchLaterMediaItems&lt;/div&gt;" style="rounded=1;whiteSpace=wrap;html=1;arcSize=40;fontColor=#000000;fillColor=#ffffc0;strokeColor=#ff0000;" vertex="1" parent="yq6eTf2_uC1WpVy0FtSs-122">
          <mxGeometry x="60" y="400" width="180" height="40" as="geometry" />
        </mxCell>
        <mxCell id="DdvpAgsueGasw1kv_X5w-30" value="&lt;div&gt;[DataController]&lt;/div&gt;&lt;div&gt;loadTrendingMediaItems&lt;/div&gt;" style="rounded=1;whiteSpace=wrap;html=1;arcSize=40;fontColor=#000000;fillColor=#ffffc0;strokeColor=#ff0000;" vertex="1" parent="yq6eTf2_uC1WpVy0FtSs-122">
          <mxGeometry x="60" y="460" width="186" height="40" as="geometry" />
        </mxCell>
        <mxCell id="DdvpAgsueGasw1kv_X5w-31" value="&lt;div&gt;[DataController]&lt;/div&gt;&lt;div&gt;loadTopRatedMediaItems&lt;/div&gt;" style="rounded=1;whiteSpace=wrap;html=1;arcSize=40;fontColor=#000000;fillColor=#ffffc0;strokeColor=#ff0000;" vertex="1" parent="yq6eTf2_uC1WpVy0FtSs-122">
          <mxGeometry x="60" y="520" width="186" height="40" as="geometry" />
        </mxCell>
        <mxCell id="DdvpAgsueGasw1kv_X5w-32" value="&lt;div&gt;[AllMediaItemListsController]&lt;/div&gt;&lt;div&gt;onDetailMediaItemsAvailable&lt;br&gt;&lt;/div&gt;" style="rounded=1;whiteSpace=wrap;html=1;arcSize=40;fontColor=#000000;fillColor=#ffffc0;strokeColor=#ff0000;" vertex="1" parent="yq6eTf2_uC1WpVy0FtSs-122">
          <mxGeometry x="370" y="400" width="180" height="40" as="geometry" />
        </mxCell>
        <mxCell id="DdvpAgsueGasw1kv_X5w-38" value="" style="edgeStyle=orthogonalEdgeStyle;html=1;verticalAlign=bottom;endArrow=open;endSize=8;strokeColor=#ff0000;exitX=1;exitY=0.5;exitDx=0;exitDy=0;entryX=0;entryY=0.5;entryDx=0;entryDy=0;" edge="1" parent="yq6eTf2_uC1WpVy0FtSs-122" source="DdvpAgsueGasw1kv_X5w-29" target="DdvpAgsueGasw1kv_X5w-32">
          <mxGeometry relative="1" as="geometry">
            <mxPoint x="320" y="420" as="targetPoint" />
            <mxPoint x="120" y="650" as="sourcePoint" />
          </mxGeometry>
        </mxCell>
        <mxCell id="DdvpAgsueGasw1kv_X5w-34" value="&lt;div&gt;[TrendingController]&lt;/div&gt;&lt;div&gt;onMediaItemsAvailable&lt;br&gt;&lt;/div&gt;" style="rounded=1;whiteSpace=wrap;html=1;arcSize=40;fontColor=#000000;fillColor=#ffffc0;strokeColor=#ff0000;" vertex="1" parent="yq6eTf2_uC1WpVy0FtSs-122">
          <mxGeometry x="370" y="460" width="170" height="40" as="geometry" />
        </mxCell>
        <mxCell id="DdvpAgsueGasw1kv_X5w-39" value="" style="edgeStyle=orthogonalEdgeStyle;html=1;verticalAlign=bottom;endArrow=open;endSize=8;strokeColor=#ff0000;exitX=1;exitY=0.5;exitDx=0;exitDy=0;entryX=0;entryY=0.5;entryDx=0;entryDy=0;" edge="1" parent="yq6eTf2_uC1WpVy0FtSs-122" source="DdvpAgsueGasw1kv_X5w-30" target="DdvpAgsueGasw1kv_X5w-34">
          <mxGeometry relative="1" as="geometry">
            <mxPoint x="330" y="430" as="targetPoint" />
            <mxPoint x="250" y="430" as="sourcePoint" />
          </mxGeometry>
        </mxCell>
        <mxCell id="DdvpAgsueGasw1kv_X5w-35" value="&lt;div&gt;[TopRatedController]&lt;/div&gt;&lt;div&gt;onMediaItemsAvailable&lt;br&gt;&lt;/div&gt;" style="rounded=1;whiteSpace=wrap;html=1;arcSize=40;fontColor=#000000;fillColor=#ffffc0;strokeColor=#ff0000;" vertex="1" parent="yq6eTf2_uC1WpVy0FtSs-122">
          <mxGeometry x="370" y="520" width="180" height="40" as="geometry" />
        </mxCell>
        <mxCell id="DdvpAgsueGasw1kv_X5w-46" value="" style="edgeStyle=orthogonalEdgeStyle;html=1;verticalAlign=bottom;endArrow=open;endSize=8;strokeColor=#ff0000;exitX=1;exitY=0.5;exitDx=0;exitDy=0;" edge="1" parent="yq6eTf2_uC1WpVy0FtSs-122" source="DdvpAgsueGasw1kv_X5w-31" target="DdvpAgsueGasw1kv_X5w-35">
          <mxGeometry relative="1" as="geometry">
            <mxPoint x="370" y="490" as="targetPoint" />
            <mxPoint x="256" y="490" as="sourcePoint" />
          </mxGeometry>
        </mxCell>
        <mxCell id="DdvpAgsueGasw1kv_X5w-14" value="" style="edgeStyle=orthogonalEdgeStyle;html=1;verticalAlign=bottom;endArrow=open;endSize=8;strokeColor=#ff0000;" edge="1" source="DdvpAgsueGasw1kv_X5w-13" parent="yq6eTf2_uC1WpVy0FtSs-117" target="DdvpAgsueGasw1kv_X5w-20">
          <mxGeometry relative="1" as="geometry">
            <mxPoint x="660" y="440" as="targetPoint" />
            <Array as="points" />
          </mxGeometry>
        </mxCell>
        <mxCell id="DdvpAgsueGasw1kv_X5w-10" value="" style="edgeStyle=orthogonalEdgeStyle;html=1;verticalAlign=bottom;endArrow=open;endSize=8;strokeColor=#ff0000;" edge="1" source="DdvpAgsueGasw1kv_X5w-9" parent="yq6eTf2_uC1WpVy0FtSs-117" target="DdvpAgsueGasw1kv_X5w-22">
          <mxGeometry relative="1" as="geometry">
            <mxPoint x="660" y="500" as="targetPoint" />
          </mxGeometry>
        </mxCell>
        <mxCell id="DdvpAgsueGasw1kv_X5w-12" value="" style="edgeStyle=orthogonalEdgeStyle;html=1;verticalAlign=bottom;endArrow=open;endSize=8;strokeColor=#ff0000;entryX=0;entryY=0.5;entryDx=0;entryDy=0;" edge="1" source="DdvpAgsueGasw1kv_X5w-11" parent="yq6eTf2_uC1WpVy0FtSs-117" target="DdvpAgsueGasw1kv_X5w-26">
          <mxGeometry relative="1" as="geometry">
            <mxPoint x="449" y="630" as="targetPoint" />
          </mxGeometry>
        </mxCell>
        <mxCell id="DdvpAgsueGasw1kv_X5w-23" value="" style="edgeStyle=orthogonalEdgeStyle;html=1;verticalAlign=bottom;endArrow=open;endSize=8;strokeColor=#ff0000;entryX=0;entryY=0.5;entryDx=0;entryDy=0;" edge="1" source="DdvpAgsueGasw1kv_X5w-22" parent="yq6eTf2_uC1WpVy0FtSs-117" target="DdvpAgsueGasw1kv_X5w-30">
          <mxGeometry relative="1" as="geometry">
            <mxPoint x="704" y="500" as="targetPoint" />
          </mxGeometry>
        </mxCell>
        <mxCell id="DdvpAgsueGasw1kv_X5w-27" value="" style="edgeStyle=orthogonalEdgeStyle;html=1;verticalAlign=bottom;endArrow=open;endSize=8;strokeColor=#ff0000;exitX=1;exitY=0.5;exitDx=0;exitDy=0;" edge="1" parent="yq6eTf2_uC1WpVy0FtSs-117" source="DdvpAgsueGasw1kv_X5w-26" target="DdvpAgsueGasw1kv_X5w-31">
          <mxGeometry relative="1" as="geometry">
            <mxPoint x="710" y="560" as="targetPoint" />
            <mxPoint x="860" y="510" as="sourcePoint" />
          </mxGeometry>
        </mxCell>
        <mxCell id="DdvpAgsueGasw1kv_X5w-21" value="" style="edgeStyle=orthogonalEdgeStyle;html=1;verticalAlign=bottom;endArrow=open;endSize=8;strokeColor=#ff0000;" edge="1" source="DdvpAgsueGasw1kv_X5w-20" parent="yq6eTf2_uC1WpVy0FtSs-117" target="DdvpAgsueGasw1kv_X5w-29">
          <mxGeometry relative="1" as="geometry">
            <mxPoint x="710" y="440" as="targetPoint" />
          </mxGeometry>
        </mxCell>
        <mxCell id="DdvpAgsueGasw1kv_X5w-48" value="" style="edgeStyle=orthogonalEdgeStyle;html=1;verticalAlign=bottom;endArrow=open;endSize=8;strokeColor=#ff0000;exitX=1;exitY=0.5;exitDx=0;exitDy=0;entryX=1;entryY=0.5;entryDx=0;entryDy=0;" edge="1" parent="yq6eTf2_uC1WpVy0FtSs-117" source="DdvpAgsueGasw1kv_X5w-35" target="DdvpAgsueGasw1kv_X5w-36">
          <mxGeometry relative="1" as="geometry">
            <mxPoint x="220" y="620" as="targetPoint" />
            <mxPoint x="1150" y="510" as="sourcePoint" />
            <Array as="points">
              <mxPoint x="1420" y="560" />
              <mxPoint x="1420" y="640" />
            </Array>
          </mxGeometry>
        </mxCell>
        <mxCell id="DdvpAgsueGasw1kv_X5w-47" value="" style="edgeStyle=orthogonalEdgeStyle;html=1;verticalAlign=bottom;endArrow=open;endSize=8;strokeColor=#ff0000;exitX=1;exitY=0.5;exitDx=0;exitDy=0;entryX=1;entryY=0.5;entryDx=0;entryDy=0;" edge="1" parent="yq6eTf2_uC1WpVy0FtSs-117" source="DdvpAgsueGasw1kv_X5w-34" target="DdvpAgsueGasw1kv_X5w-49">
          <mxGeometry relative="1" as="geometry">
            <mxPoint x="1310" y="500" as="targetPoint" />
            <mxPoint x="1150" y="450" as="sourcePoint" />
            <Array as="points">
              <mxPoint x="1450" y="500" />
              <mxPoint x="1450" y="690" />
            </Array>
          </mxGeometry>
        </mxCell>
        <mxCell id="DdvpAgsueGasw1kv_X5w-33" value="" style="edgeStyle=orthogonalEdgeStyle;html=1;verticalAlign=bottom;endArrow=open;endSize=8;strokeColor=#ff0000;entryX=1;entryY=0.5;entryDx=0;entryDy=0;" edge="1" source="DdvpAgsueGasw1kv_X5w-32" parent="yq6eTf2_uC1WpVy0FtSs-117" target="DdvpAgsueGasw1kv_X5w-51">
          <mxGeometry relative="1" as="geometry">
            <mxPoint x="1470" y="440" as="targetPoint" />
            <Array as="points">
              <mxPoint x="1490" y="440" />
              <mxPoint x="1490" y="740" />
            </Array>
          </mxGeometry>
        </mxCell>
        <mxCell id="DdvpAgsueGasw1kv_X5w-61" value="&lt;div&gt;Observer klassen op LiveData. &lt;br&gt;&lt;/div&gt;&lt;div&gt;Bijv. topRatedMediaItems.&lt;/div&gt;" style="html=1;" vertex="1" parent="H5sYtzii5KLrwhcXaRjJ-1">
          <mxGeometry x="-430" y="2288" width="170" height="50" as="geometry" />
        </mxCell>
        <mxCell id="DdvpAgsueGasw1kv_X5w-63" style="edgeStyle=orthogonalEdgeStyle;rounded=0;orthogonalLoop=1;jettySize=auto;html=1;entryX=0.75;entryY=1;entryDx=0;entryDy=0;" edge="1" parent="H5sYtzii5KLrwhcXaRjJ-1" source="DdvpAgsueGasw1kv_X5w-59" target="DdvpAgsueGasw1kv_X5w-61">
          <mxGeometry relative="1" as="geometry" />
        </mxCell>
        <mxCell id="DdvpAgsueGasw1kv_X5w-69" style="edgeStyle=orthogonalEdgeStyle;rounded=0;orthogonalLoop=1;jettySize=auto;html=1;entryX=0.5;entryY=1;entryDx=0;entryDy=0;" edge="1" parent="H5sYtzii5KLrwhcXaRjJ-1" source="DdvpAgsueGasw1kv_X5w-64" target="DdvpAgsueGasw1kv_X5w-61">
          <mxGeometry relative="1" as="geometry" />
        </mxCell>
        <mxCell id="DdvpAgsueGasw1kv_X5w-70" style="edgeStyle=orthogonalEdgeStyle;rounded=0;orthogonalLoop=1;jettySize=auto;html=1;entryX=0.25;entryY=1;entryDx=0;entryDy=0;" edge="1" parent="H5sYtzii5KLrwhcXaRjJ-1" source="DdvpAgsueGasw1kv_X5w-67" target="DdvpAgsueGasw1kv_X5w-61">
          <mxGeometry relative="1" as="geometry" />
        </mxCell>
        <mxCell id="49cVnU5MIyYh-Apl6PBV-65" value="Pool" style="swimlane;html=1;childLayout=stackLayout;resizeParent=1;resizeParentMax=0;startSize=20;" vertex="1" parent="H5sYtzii5KLrwhcXaRjJ-1">
          <mxGeometry x="2690" y="1510" width="1980" height="1550" as="geometry" />
        </mxCell>
        <mxCell id="49cVnU5MIyYh-Apl6PBV-66" value="Lane 1" style="swimlane;html=1;startSize=20;" vertex="1" parent="49cVnU5MIyYh-Apl6PBV-65">
          <mxGeometry y="20" width="680" height="1530" as="geometry" />
        </mxCell>
        <mxCell id="49cVnU5MIyYh-Apl6PBV-67" value="Lane 2" style="swimlane;html=1;startSize=20;" vertex="1" parent="49cVnU5MIyYh-Apl6PBV-65">
          <mxGeometry x="680" y="20" width="620" height="1530" as="geometry" />
        </mxCell>
        <mxCell id="49cVnU5MIyYh-Apl6PBV-68" value="Lane 3" style="swimlane;html=1;startSize=20;" vertex="1" parent="49cVnU5MIyYh-Apl6PBV-65">
          <mxGeometry x="1300" y="20" width="680" height="1530" as="geometry" />
        </mxCell>
      </root>
    </mxGraphModel>
  </diagram>
</mxfile>
